<?xml version="1.0" encoding="UTF-8" standalone="no"?>
<!DOCTYPE svg PUBLIC "-//W3C//DTD SVG 1.1//EN" "http://www.w3.org/Graphics/SVG/1.1/DTD/svg11.dtd">
<!-- Created with Vectornator (http://vectornator.io/) -->
<svg height="100%" stroke-miterlimit="10"
     style="fill-rule:nonzero;clip-rule:evenodd;stroke-linecap:round;stroke-linejoin:round;"
     version="1.1" viewBox="46.3326 16.064 207.334 60.0779" width="100%" xml:space="preserve"
     xmlns="http://www.w3.org/2000/svg">
<defs/>
	<g id="Layer-1">
<g opacity="1">
<g opacity="1">
<path
	d="M46.3326 63.12L46.3326 16.88L77.3506 16.88L77.3506 25.04L56.1954 25.04L56.1954 38.64L73.4912 38.64L73.4912 46.8L56.1954 46.8L56.1954 63.12L46.3326 63.12Z"
	fill="#2b2929" fill-rule="nonzero" opacity="1" stroke="none"/>
	<path
		d="M94.1461 47.616L94.1461 63.12L84.2832 63.12L84.2832 16.88L103.151 16.88C114.587 16.88 120.304 21.9572 120.304 32.112C120.304 38.1412 117.922 42.584 113.157 45.44L120.09 63.12L109.298 63.12L103.652 47.616L94.1461 47.616ZM103.294 39.592C105.629 39.592 107.368 38.912 108.512 37.552C109.655 36.192 110.227 34.4012 110.227 32.18C110.227 29.9588 109.619 28.1908 108.404 26.876C107.189 25.5612 105.438 24.904 103.151 24.904L94.1461 24.904L94.1461 39.592L103.294 39.592Z"
		fill="#2b2929" fill-rule="nonzero" opacity="1" stroke="none"/>
	<path d="M128.595 63.12L128.595 16.88L138.458 16.88L138.458 63.12L128.595 63.12Z" fill="#2b2929"
	      fill-rule="nonzero" opacity="1" stroke="none"/>
	<path
		d="M145.104 16.88L155.467 16.88L161.471 55.096L162.543 55.096L171.262 16.88L182.698 16.88L191.417 55.096L192.489 55.096L198.492 16.88L208.856 16.88L199.565 63.12L184.627 63.12L176.98 27.964L169.333 63.12L154.395 63.12L145.104 16.88Z"
		fill="#2b2929" fill-rule="nonzero" opacity="1" stroke="none"/>
	<path
		d="M225.58 52.24C227.009 54.5972 229.653 55.776 233.513 55.776C237.372 55.776 240.005 54.586 241.41 52.206C242.816 49.826 243.519 45.8368 243.519 40.238C243.519 34.6392 242.804 30.5708 241.375 28.032C239.945 25.4932 237.325 24.224 233.513 24.224C229.701 24.224 227.081 25.4932 225.651 28.032C224.222 30.5708 223.507 34.6392 223.507 40.238C223.507 45.8368 224.198 49.8372 225.58 52.24ZM249.093 58.224C246.092 62.032 240.898 63.936 233.513 63.936C226.127 63.936 220.922 62.0208 217.897 58.19C214.871 54.3592 213.358 48.364 213.358 40.204C213.358 32.044 214.871 25.9808 217.897 22.014C220.922 18.0472 226.127 16.064 233.513 16.064C240.898 16.064 246.103 18.0472 249.129 22.014C252.155 25.9808 253.667 32.044 253.667 40.204C253.667 48.364 252.143 54.3708 249.093 58.224Z"
		fill="#2b2929" fill-rule="nonzero" opacity="1" stroke="none"/>
</g>
	<g fill="#2b2929" opacity="1" stroke="none">
<path
	d="M64.8219 73.3219L64.8219 65.0179L66.4899 65.0179L68.8419 72.0379L71.1939 65.0179L72.8619 65.0179L72.8619 73.3219L71.9379 73.3219L71.9379 66.0019L71.7699 66.0019L69.3579 73.0219L68.3259 73.0219L65.9139 66.0019L65.7459 66.0019L65.7459 73.3219L64.8219 73.3219Z"/>
		<path
			d="M78.9819 69.1339L78.9819 72.2059C79.0059 72.5019 79.2379 72.6779 79.6779 72.7339L79.6419 73.4419C79.0099 73.4419 78.5339 73.2819 78.2139 72.9619C77.4939 73.2819 76.7739 73.4419 76.0539 73.4419C75.5019 73.4419 75.0819 73.2859 74.7939 72.9739C74.5059 72.6619 74.3619 72.2139 74.3619 71.6299C74.3619 71.0459 74.5099 70.6159 74.8059 70.3399C75.1019 70.0639 75.5659 69.8939 76.1979 69.8299L78.0819 69.6499L78.0819 69.1339C78.0819 68.7259 77.9939 68.4339 77.8179 68.2579C77.6419 68.0819 77.4019 67.9939 77.0979 67.9939C76.4579 67.9939 75.7939 68.0339 75.1059 68.1139L74.7339 68.1499L74.6979 67.4659C75.5779 67.2899 76.3579 67.2019 77.0379 67.2019C77.7179 67.2019 78.2119 67.3579 78.5199 67.6699C78.8279 67.9819 78.9819 68.4699 78.9819 69.1339ZM75.2859 71.5819C75.2859 72.3179 75.5899 72.6859 76.1979 72.6859C76.7419 72.6859 77.2779 72.5939 77.8059 72.4099L78.0819 72.3139L78.0819 70.3339L76.3059 70.5019C75.9459 70.5339 75.6859 70.6379 75.5259 70.8139C75.3659 70.9899 75.2859 71.2459 75.2859 71.5819Z"/>
		<path
			d="M81.6579 73.3219L80.7579 73.3219L80.7579 67.3219L81.6459 67.3219L81.6459 67.7419C82.2939 67.3819 82.9139 67.2019 83.5059 67.2019C84.3059 67.2019 84.8439 67.4179 85.1199 67.8499C85.3959 68.2819 85.5339 69.0499 85.5339 70.1539L85.5339 73.3219L84.6459 73.3219L84.6459 70.1779C84.6459 69.3459 84.5639 68.7759 84.3999 68.4679C84.2359 68.1599 83.8859 68.0059 83.3499 68.0059C83.0939 68.0059 82.8239 68.0439 82.5399 68.1199C82.2559 68.1959 82.0379 68.2699 81.8859 68.3419L81.6579 68.4499L81.6579 73.3219Z"/>
		<path
			d="M90.9459 67.3219L91.8459 67.3219L91.8459 73.3219L90.9459 73.3219L90.9459 72.9019C90.3459 73.2619 89.7539 73.4419 89.1699 73.4419C88.3539 73.4419 87.8119 73.2299 87.5439 72.8059C87.2759 72.3819 87.1419 71.5979 87.1419 70.4539L87.1419 67.3219L88.0419 67.3219L88.0419 70.4419C88.0419 71.3139 88.1179 71.8979 88.2699 72.1939C88.4219 72.4899 88.7659 72.6379 89.3019 72.6379C89.5659 72.6379 89.8339 72.5999 90.1059 72.5239C90.3779 72.4479 90.5859 72.3739 90.7299 72.3019L90.9459 72.1939L90.9459 67.3219Z"/>
		<path
			d="M94.7259 68.1019L94.7259 73.3219L93.8259 73.3219L93.8259 68.1019L93.0699 68.1019L93.0699 67.3219L93.8259 67.3219L93.8259 66.7819C93.8259 65.9339 93.9459 65.3559 94.1859 65.0479C94.4259 64.7399 94.8459 64.5859 95.4459 64.5859L96.6579 64.6699L96.6459 65.4139C96.1979 65.3979 95.8279 65.3899 95.5359 65.3899C95.2439 65.3899 95.0359 65.4859 94.9119 65.6779C94.7879 65.8699 94.7259 66.2419 94.7259 66.7939L94.7259 67.3219L96.4659 67.3219L96.4659 68.1019L94.7259 68.1019Z"/>
		<path
			d="M101.782 69.1339L101.782 72.2059C101.806 72.5019 102.038 72.6779 102.478 72.7339L102.442 73.4419C101.81 73.4419 101.334 73.2819 101.014 72.9619C100.294 73.2819 99.5739 73.4419 98.8539 73.4419C98.3019 73.4419 97.8819 73.2859 97.5939 72.9739C97.3059 72.6619 97.1619 72.2139 97.1619 71.6299C97.1619 71.0459 97.3099 70.6159 97.6059 70.3399C97.9019 70.0639 98.3659 69.8939 98.9979 69.8299L100.882 69.6499L100.882 69.1339C100.882 68.7259 100.794 68.4339 100.618 68.2579C100.442 68.0819 100.202 67.9939 99.8979 67.9939C99.2579 67.9939 98.5939 68.0339 97.9059 68.1139L97.5339 68.1499L97.4979 67.4659C98.3779 67.2899 99.1579 67.2019 99.8379 67.2019C100.518 67.2019 101.012 67.3579 101.32 67.6699C101.628 67.9819 101.782 68.4699 101.782 69.1339ZM98.0859 71.5819C98.0859 72.3179 98.3899 72.6859 98.9979 72.6859C99.5419 72.6859 100.078 72.5939 100.606 72.4099L100.882 72.3139L100.882 70.3339L99.1059 70.5019C98.7459 70.5339 98.4859 70.6379 98.3259 70.8139C98.1659 70.9899 98.0859 71.2459 98.0859 71.5819Z"/>
		<path
			d="M105.802 67.2019C106.066 67.2019 106.514 67.2499 107.146 67.3459L107.434 67.3819L107.398 68.1139C106.758 68.0419 106.286 68.0059 105.982 68.0059C105.302 68.0059 104.84 68.1679 104.596 68.4919C104.352 68.8159 104.23 69.4159 104.23 70.2919C104.23 71.1679 104.344 71.7779 104.572 72.1219C104.8 72.4659 105.274 72.6379 105.994 72.6379L107.41 72.5299L107.446 73.2739C106.702 73.3859 106.146 73.4419 105.778 73.4419C104.842 73.4419 104.196 73.2019 103.84 72.7219C103.484 72.2419 103.306 71.4319 103.306 70.2919C103.306 69.1519 103.498 68.3519 103.882 67.8919C104.266 67.4319 104.906 67.2019 105.802 67.2019Z"/>
		<path
			d="M111.898 68.1019L109.99 68.1019L109.99 70.9699C109.99 71.6579 110.04 72.1099 110.14 72.3259C110.24 72.5419 110.478 72.6499 110.854 72.6499L111.922 72.5779L111.982 73.3219C111.446 73.4099 111.038 73.4539 110.758 73.4539C110.134 73.4539 109.702 73.3019 109.462 72.9979C109.222 72.6939 109.102 72.1139 109.102 71.2579L109.102 68.1019L108.25 68.1019L108.25 67.3219L109.102 67.3219L109.102 65.4859L109.99 65.4859L109.99 67.3219L111.898 67.3219L111.898 68.1019Z"/>
		<path
			d="M116.746 67.3219L117.646 67.3219L117.646 73.3219L116.746 73.3219L116.746 72.9019C116.146 73.2619 115.554 73.4419 114.97 73.4419C114.154 73.4419 113.612 73.2299 113.344 72.8059C113.076 72.3819 112.942 71.5979 112.942 70.4539L112.942 67.3219L113.842 67.3219L113.842 70.4419C113.842 71.3139 113.918 71.8979 114.07 72.1939C114.222 72.4899 114.566 72.6379 115.102 72.6379C115.366 72.6379 115.634 72.5999 115.906 72.5239C116.178 72.4479 116.386 72.3739 116.53 72.3019L116.746 72.1939L116.746 67.3219Z"/>
		<path
			d="M119.374 73.3219L119.374 67.3219L120.262 67.3219L120.262 68.1379C120.958 67.6579 121.69 67.3419 122.458 67.1899L122.458 68.1019C122.122 68.1659 121.772 68.2659 121.408 68.4019C121.044 68.5379 120.766 68.6579 120.574 68.7619L120.274 68.9179L120.274 73.3219L119.374 73.3219Z"/>
		<path
			d="M123.526 73.3219L123.526 67.3219L124.426 67.3219L124.426 73.3219L123.526 73.3219ZM123.526 65.9659L123.526 64.9219L124.426 64.9219L124.426 65.9659L123.526 65.9659Z"/>
		<path
			d="M127.054 73.3219L126.154 73.3219L126.154 67.3219L127.042 67.3219L127.042 67.7419C127.69 67.3819 128.31 67.2019 128.902 67.2019C129.702 67.2019 130.24 67.4179 130.516 67.8499C130.792 68.2819 130.93 69.0499 130.93 70.1539L130.93 73.3219L130.042 73.3219L130.042 70.1779C130.042 69.3459 129.96 68.7759 129.796 68.4679C129.632 68.1599 129.282 68.0059 128.746 68.0059C128.49 68.0059 128.22 68.0439 127.936 68.1199C127.652 68.1959 127.434 68.2699 127.282 68.3419L127.054 68.4499L127.054 73.3219Z"/>
		<path
			d="M134.914 76.1419C133.954 76.1419 133.284 76.0119 132.904 75.7519C132.524 75.4919 132.334 75.0179 132.334 74.3299C132.334 74.0019 132.406 73.7359 132.55 73.5319C132.694 73.3279 132.938 73.0979 133.282 72.8419C133.058 72.6899 132.946 72.4139 132.946 72.0139C132.946 71.8779 133.046 71.6259 133.246 71.2579L133.354 71.0659C132.722 70.7779 132.406 70.1739 132.406 69.2539C132.406 67.8859 133.154 67.2019 134.65 67.2019C135.034 67.2019 135.39 67.2419 135.718 67.3219L135.898 67.3579L137.674 67.3099L137.674 68.0779L136.534 68.0539C136.798 68.3179 136.93 68.7179 136.93 69.2539C136.93 70.0059 136.744 70.5319 136.372 70.8319C136 71.1319 135.414 71.2819 134.614 71.2819C134.398 71.2819 134.202 71.2659 134.026 71.2339C133.882 71.5859 133.81 71.8139 133.81 71.9179C133.81 72.1659 133.886 72.3199 134.038 72.3799C134.19 72.4399 134.65 72.4699 135.418 72.4699C136.186 72.4699 136.738 72.5899 137.074 72.8299C137.41 73.0699 137.578 73.5379 137.578 74.2339C137.578 75.5059 136.69 76.1419 134.914 76.1419ZM133.222 74.2579C133.222 74.6819 133.34 74.9759 133.576 75.1399C133.812 75.3039 134.248 75.3859 134.884 75.3859C135.52 75.3859 135.976 75.2979 136.252 75.1219C136.528 74.9459 136.666 74.6519 136.666 74.2399C136.666 73.8279 136.566 73.5619 136.366 73.4419C136.166 73.3219 135.774 73.2619 135.19 73.2619L133.894 73.2019C133.63 73.3939 133.452 73.5619 133.36 73.7059C133.268 73.8499 133.222 74.0339 133.222 74.2579ZM133.306 69.2539C133.306 69.7259 133.412 70.0619 133.624 70.2619C133.836 70.4619 134.186 70.5619 134.674 70.5619C135.162 70.5619 135.51 70.4619 135.718 70.2619C135.926 70.0619 136.03 69.7239 136.03 69.2479C136.03 68.7719 135.926 68.4339 135.718 68.2339C135.51 68.0339 135.162 67.9339 134.674 67.9339C134.186 67.9339 133.836 68.0359 133.624 68.2399C133.412 68.4439 133.306 68.7819 133.306 69.2539Z"/>
		<path
			d="M141.562 73.3219L141.562 65.0179L146.614 65.0179L146.614 65.8339L142.486 65.8339L142.486 68.7019L145.894 68.7019L145.894 69.5059L142.486 69.5059L142.486 72.5059L146.614 72.5059L146.614 73.3219L141.562 73.3219Z"/>
		<path
			d="M147.442 67.3219L148.426 67.3219L149.89 69.6739L151.354 67.3219L152.338 67.3219L150.43 70.2979L152.326 73.3219L151.342 73.3219L149.89 70.9819L148.426 73.3219L147.442 73.3219L149.326 70.3219L147.442 67.3219Z"/>
		<path
			d="M157.402 72.5779L157.75 72.5419L157.774 73.2499C156.862 73.3779 156.082 73.4419 155.434 73.4419C154.57 73.4419 153.958 73.1919 153.598 72.6919C153.238 72.1919 153.058 71.4139 153.058 70.3579C153.058 68.2539 153.894 67.2019 155.566 67.2019C156.374 67.2019 156.978 67.4279 157.378 67.8799C157.778 68.3319 157.978 69.0419 157.978 70.0099L157.93 70.6939L153.97 70.6939C153.97 71.3579 154.09 71.8499 154.33 72.1699C154.57 72.4899 154.988 72.6499 155.584 72.6499C156.18 72.6499 156.786 72.6259 157.402 72.5779ZM157.078 69.9739C157.078 69.2379 156.96 68.7179 156.724 68.4139C156.488 68.1099 156.104 67.9579 155.572 67.9579C155.04 67.9579 154.64 68.1179 154.372 68.4379C154.104 68.7579 153.966 69.2699 153.958 69.9739L157.078 69.9739Z"/>
		<path
			d="M161.626 67.2019C161.89 67.2019 162.338 67.2499 162.97 67.3459L163.258 67.3819L163.222 68.1139C162.582 68.0419 162.11 68.0059 161.806 68.0059C161.126 68.0059 160.664 68.1679 160.42 68.4919C160.176 68.8159 160.054 69.4159 160.054 70.2919C160.054 71.1679 160.168 71.7779 160.396 72.1219C160.624 72.4659 161.098 72.6379 161.818 72.6379L163.234 72.5299L163.27 73.2739C162.526 73.3859 161.97 73.4419 161.602 73.4419C160.666 73.4419 160.02 73.2019 159.664 72.7219C159.308 72.2419 159.13 71.4319 159.13 70.2919C159.13 69.1519 159.322 68.3519 159.706 67.8919C160.09 67.4319 160.73 67.2019 161.626 67.2019Z"/>
		<path
			d="M168.358 67.3219L169.258 67.3219L169.258 73.3219L168.358 73.3219L168.358 72.9019C167.758 73.2619 167.166 73.4419 166.582 73.4419C165.766 73.4419 165.224 73.2299 164.956 72.8059C164.688 72.3819 164.554 71.5979 164.554 70.4539L164.554 67.3219L165.454 67.3219L165.454 70.4419C165.454 71.3139 165.53 71.8979 165.682 72.1939C165.834 72.4899 166.178 72.6379 166.714 72.6379C166.978 72.6379 167.246 72.5999 167.518 72.5239C167.79 72.4479 167.998 72.3739 168.142 72.3019L168.358 72.1939L168.358 67.3219Z"/>
		<path
			d="M174.094 68.1019L172.186 68.1019L172.186 70.9699C172.186 71.6579 172.236 72.1099 172.336 72.3259C172.436 72.5419 172.674 72.6499 173.05 72.6499L174.118 72.5779L174.178 73.3219C173.642 73.4099 173.234 73.4539 172.954 73.4539C172.33 73.4539 171.898 73.3019 171.658 72.9979C171.418 72.6939 171.298 72.1139 171.298 71.2579L171.298 68.1019L170.446 68.1019L170.446 67.3219L171.298 67.3219L171.298 65.4859L172.186 65.4859L172.186 67.3219L174.094 67.3219L174.094 68.1019Z"/>
		<path
			d="M175.198 73.3219L175.198 67.3219L176.098 67.3219L176.098 73.3219L175.198 73.3219ZM175.198 65.9659L175.198 64.9219L176.098 64.9219L176.098 65.9659L175.198 65.9659Z"/>
		<path
			d="M177.562 70.3099C177.562 69.2139 177.758 68.4219 178.15 67.9339C178.542 67.4459 179.204 67.2019 180.136 67.2019C181.068 67.2019 181.728 67.4459 182.116 67.9339C182.504 68.4219 182.698 69.2139 182.698 70.3099C182.698 71.4059 182.514 72.2019 182.146 72.6979C181.778 73.1939 181.106 73.4419 180.13 73.4419C179.154 73.4419 178.482 73.1939 178.114 72.6979C177.746 72.2019 177.562 71.4059 177.562 70.3099ZM178.486 70.2979C178.486 71.1699 178.592 71.7819 178.804 72.1339C179.016 72.4859 179.46 72.6619 180.136 72.6619C180.812 72.6619 181.254 72.4879 181.462 72.1399C181.67 71.7919 181.774 71.1779 181.774 70.2979C181.774 69.4179 181.658 68.8119 181.426 68.4799C181.194 68.1479 180.764 67.9819 180.136 67.9819C179.508 67.9819 179.076 68.1479 178.84 68.4799C178.604 68.8119 178.486 69.4179 178.486 70.2979Z"/>
		<path
			d="M185.062 73.3219L184.162 73.3219L184.162 67.3219L185.05 67.3219L185.05 67.7419C185.698 67.3819 186.318 67.2019 186.91 67.2019C187.71 67.2019 188.248 67.4179 188.524 67.8499C188.8 68.2819 188.938 69.0499 188.938 70.1539L188.938 73.3219L188.05 73.3219L188.05 70.1779C188.05 69.3459 187.968 68.7759 187.804 68.4679C187.64 68.1599 187.29 68.0059 186.754 68.0059C186.498 68.0059 186.228 68.0439 185.944 68.1199C185.66 68.1959 185.442 68.2699 185.29 68.3419L185.062 68.4499L185.062 73.3219Z"/>
		<path
			d="M195.694 65.7019C194.494 65.7019 193.894 66.1539 193.894 67.0579C193.894 67.5619 194.032 67.9079 194.308 68.0959C194.584 68.2839 195.144 68.4719 195.988 68.6599C196.832 68.8479 197.43 69.0919 197.782 69.3919C198.134 69.6919 198.31 70.1859 198.31 70.8739C198.31 72.5779 197.426 73.4299 195.658 73.4299C195.074 73.4299 194.342 73.3619 193.462 73.2259L193.03 73.1659L193.126 72.3979C194.214 72.5419 195.042 72.6139 195.61 72.6139C196.794 72.6139 197.386 72.0579 197.386 70.9459C197.386 70.4979 197.256 70.1759 196.996 69.9799C196.736 69.7839 196.25 69.6179 195.538 69.4819C194.602 69.2819 193.938 69.0239 193.546 68.7079C193.154 68.3919 192.958 67.8619 192.958 67.1179C192.958 65.6299 193.85 64.8859 195.634 64.8859C196.218 64.8859 196.918 64.9459 197.734 65.0659L198.142 65.1259L198.058 65.9059C196.946 65.7699 196.158 65.7019 195.694 65.7019Z"/>
		<path
			d="M199.066 67.3219L199.966 67.3219L201.466 72.5419L201.862 72.5419L203.374 67.3219L204.274 67.3219L201.778 75.9859L200.878 75.9859L201.658 73.3219L200.77 73.3219L199.066 67.3219Z"/>
		<path
			d="M207.226 68.0059C206.354 68.0059 205.918 68.3099 205.918 68.9179C205.918 69.1979 206.018 69.3959 206.218 69.5119C206.418 69.6279 206.874 69.7479 207.586 69.8719C208.298 69.9959 208.802 70.1699 209.098 70.3939C209.394 70.6179 209.542 71.0379 209.542 71.6539C209.542 72.2699 209.344 72.7219 208.948 73.0099C208.552 73.2979 207.974 73.4419 207.214 73.4419C206.718 73.4419 206.134 73.3859 205.462 73.2739L205.102 73.2139L205.15 72.4339C206.062 72.5699 206.75 72.6379 207.214 72.6379C207.678 72.6379 208.032 72.5639 208.276 72.4159C208.52 72.2679 208.642 72.0199 208.642 71.6719C208.642 71.3239 208.538 71.0879 208.33 70.9639C208.122 70.8399 207.666 70.7219 206.962 70.6099C206.258 70.4979 205.758 70.3339 205.462 70.1179C205.166 69.9019 205.018 69.5019 205.018 68.9179C205.018 68.3339 205.224 67.9019 205.636 67.6219C206.048 67.3419 206.562 67.2019 207.178 67.2019C207.666 67.2019 208.278 67.2579 209.014 67.3699L209.35 67.4299L209.326 68.1979C208.438 68.0699 207.738 68.0059 207.226 68.0059Z"/>
		<path
			d="M214.03 68.1019L212.122 68.1019L212.122 70.9699C212.122 71.6579 212.172 72.1099 212.272 72.3259C212.372 72.5419 212.61 72.6499 212.986 72.6499L214.054 72.5779L214.114 73.3219C213.578 73.4099 213.17 73.4539 212.89 73.4539C212.266 73.4539 211.834 73.3019 211.594 72.9979C211.354 72.6939 211.234 72.1139 211.234 71.2579L211.234 68.1019L210.382 68.1019L210.382 67.3219L211.234 67.3219L211.234 65.4859L212.122 65.4859L212.122 67.3219L214.03 67.3219L214.03 68.1019Z"/>
		<path
			d="M219.214 72.5779L219.562 72.5419L219.586 73.2499C218.674 73.3779 217.894 73.4419 217.246 73.4419C216.382 73.4419 215.77 73.1919 215.41 72.6919C215.05 72.1919 214.87 71.4139 214.87 70.3579C214.87 68.2539 215.706 67.2019 217.378 67.2019C218.186 67.2019 218.79 67.4279 219.19 67.8799C219.59 68.3319 219.79 69.0419 219.79 70.0099L219.742 70.6939L215.782 70.6939C215.782 71.3579 215.902 71.8499 216.142 72.1699C216.382 72.4899 216.8 72.6499 217.396 72.6499C217.992 72.6499 218.598 72.6259 219.214 72.5779ZM218.89 69.9739C218.89 69.2379 218.772 68.7179 218.536 68.4139C218.3 68.1099 217.916 67.9579 217.384 67.9579C216.852 67.9579 216.452 68.1179 216.184 68.4379C215.916 68.7579 215.778 69.2699 215.77 69.9739L218.89 69.9739Z"/>
		<path
			d="M222.094 73.3219L221.194 73.3219L221.194 67.3219L222.082 67.3219L222.082 67.7419C222.682 67.3819 223.266 67.2019 223.834 67.2019C224.578 67.2019 225.098 67.4059 225.394 67.8139C225.658 67.6539 226 67.5119 226.42 67.3879C226.84 67.2639 227.21 67.2019 227.53 67.2019C228.33 67.2019 228.868 67.4159 229.144 67.8439C229.42 68.2719 229.558 69.0419 229.558 70.1539L229.558 73.3219L228.658 73.3219L228.658 70.1779C228.658 69.3459 228.578 68.7759 228.418 68.4679C228.258 68.1599 227.918 68.0059 227.398 68.0059C227.134 68.0059 226.862 68.0439 226.582 68.1199C226.302 68.1959 226.086 68.2699 225.934 68.3419L225.706 68.4499C225.81 68.7139 225.862 69.2979 225.862 70.2019L225.862 73.3219L224.962 73.3219L224.962 70.2259C224.962 69.3619 224.884 68.7759 224.728 68.4679C224.572 68.1599 224.23 68.0059 223.702 68.0059C223.446 68.0059 223.184 68.0439 222.916 68.1199C222.648 68.1959 222.442 68.2699 222.298 68.3419L222.094 68.4499L222.094 73.3219Z"/>
</g>
</g>
</g>
</svg>
