<?xml version="1.0" encoding="UTF-8" standalone="no"?>
<!DOCTYPE svg PUBLIC "-//W3C//DTD SVG 1.1//EN" "http://www.w3.org/Graphics/SVG/1.1/DTD/svg11.dtd">
<!-- Created with Vectornator (http://vectornator.io/) -->
<svg xmlns:vectornator="http://vectornator.io" height="100%"
     stroke-miterlimit="10"
     style="fill-rule:nonzero;clip-rule:evenodd;stroke-linecap:round;stroke-linejoin:round;" version="1.1" viewBox="0 0 210 210" width="100%"
     xml:space="preserve" xmlns="http://www.w3.org/2000/svg">
<defs/>
	<path d="M0 0L210 0L210 210L0 210L0 0Z" fill="#363434" fill-opacity="0.6" fill-rule="nonzero"
	      opacity="1" stroke="none"/>
	<g id="Layer-1" vectornator:layerName="Layer-1">
<g opacity="1" vectornator:layerName="g">
<g opacity="1" vectornator:layerName="g">
<path
	d="M14.0127 109.205L14.0127 97.4007L15.7481 97.4007L18.1953 107.38L20.6424 97.4007L22.3779 97.4007L22.3779 109.205L21.4165 109.205L21.4165 98.7994L21.2417 98.7994L18.7322 108.778L17.6584 108.778L15.1488 98.7994L14.974 98.7994L14.974 109.205L14.0127 109.205Z"
	fill="#f5891d" fill-rule="nonzero" opacity="1" stroke="none" vectornator:layerName="path"/>
	<path
		d="M28.7455 103.252L28.7455 107.618C28.7705 108.039 29.0118 108.289 29.4696 108.369L29.4322 109.375C28.7746 109.375 28.2794 109.148 27.9464 108.693C27.1973 109.148 26.4482 109.375 25.699 109.375C25.1247 109.375 24.6877 109.154 24.3881 108.71C24.0884 108.267 23.9386 107.63 23.9386 106.8C23.9386 105.969 24.0926 105.358 24.4006 104.966C24.7085 104.574 25.1913 104.332 25.8489 104.241L27.8091 103.985L27.8091 103.252C27.8091 102.672 27.7175 102.257 27.5344 102.006C27.3513 101.756 27.1016 101.631 26.7853 101.631C26.1194 101.631 25.4285 101.688 24.7127 101.802L24.3256 101.853L24.2882 100.88C25.2038 100.63 26.0153 100.505 26.7228 100.505C27.4304 100.505 27.9443 100.727 28.2648 101.17C28.5853 101.614 28.7455 102.308 28.7455 103.252ZM24.9 106.731C24.9 107.778 25.2163 108.301 25.8489 108.301C26.4149 108.301 26.9726 108.17 27.5219 107.908L27.8091 107.772L27.8091 104.957L25.9612 105.196C25.5867 105.242 25.3162 105.389 25.1497 105.64C24.9832 105.89 24.9 106.254 24.9 106.731Z"
		fill="#f5891d" fill-rule="nonzero" opacity="1" stroke="none" vectornator:layerName="path"/>
	<path
		d="M31.5297 109.205L30.5933 109.205L30.5933 100.676L31.5173 100.676L31.5173 101.273C32.1915 100.761 32.8366 100.505 33.4525 100.505C34.2849 100.505 34.8446 100.812 35.1318 101.426C35.419 102.04 35.5625 103.132 35.5625 104.701L35.5625 109.205L34.6386 109.205L34.6386 104.736C34.6386 103.553 34.5533 102.743 34.3827 102.305C34.212 101.867 33.8479 101.648 33.2902 101.648C33.0238 101.648 32.7429 101.702 32.4474 101.81C32.1519 101.918 31.9251 102.023 31.767 102.126L31.5297 102.279L31.5297 109.205Z"
		fill="#f5891d" fill-rule="nonzero" opacity="1" stroke="none" vectornator:layerName="path"/>
	<path
		d="M41.1935 100.676L42.1299 100.676L42.1299 109.205L41.1935 109.205L41.1935 108.608C40.5692 109.12 39.9533 109.375 39.3456 109.375C38.4966 109.375 37.9327 109.074 37.6538 108.471C37.375 107.869 37.2356 106.754 37.2356 105.128L37.2356 100.676L38.172 100.676L38.172 105.111C38.172 106.35 38.2511 107.181 38.4092 107.601C38.5674 108.022 38.9253 108.232 39.483 108.232C39.7576 108.232 40.0365 108.178 40.3195 108.07C40.6025 107.962 40.8189 107.857 40.9687 107.755L41.1935 107.601L41.1935 100.676Z"
		fill="#f5891d" fill-rule="nonzero" opacity="1" stroke="none" vectornator:layerName="path"/>
	<path
		d="M45.1264 101.785L45.1264 109.205L44.19 109.205L44.19 101.785L43.4034 101.785L43.4034 100.676L44.19 100.676L44.19 99.9082C44.19 98.7028 44.3148 97.8811 44.5645 97.4433C44.8142 97.0055 45.2512 96.7866 45.8755 96.7866L47.1365 96.906L47.1241 97.9636C46.6579 97.9408 46.273 97.9295 45.9692 97.9295C45.6653 97.9295 45.4489 98.0659 45.3199 98.3389C45.1909 98.6118 45.1264 99.1406 45.1264 99.9252L45.1264 100.676L46.9368 100.676L46.9368 101.785L45.1264 101.785Z"
		fill="#f5891d" fill-rule="nonzero" opacity="1" stroke="none" vectornator:layerName="path"/>
	<path
		d="M52.4679 103.252L52.4679 107.618C52.4929 108.039 52.7343 108.289 53.1921 108.369L53.1546 109.375C52.4971 109.375 52.0018 109.148 51.6689 108.693C50.9197 109.148 50.1705 109.375 49.4214 109.375C48.847 109.375 48.4101 109.154 48.1104 108.71C47.8108 108.267 47.6609 107.63 47.6609 106.8C47.6609 105.969 47.8149 105.358 48.1229 104.966C48.4309 104.574 48.9136 104.332 49.5712 104.241L51.5315 103.985L51.5315 103.252C51.5315 102.672 51.44 102.257 51.2568 102.006C51.0737 101.756 50.824 101.631 50.5076 101.631C49.8417 101.631 49.1509 101.688 48.435 101.802L48.048 101.853L48.0105 100.88C48.9261 100.63 49.7377 100.505 50.4452 100.505C51.1528 100.505 51.6668 100.727 51.9872 101.17C52.3077 101.614 52.4679 102.308 52.4679 103.252ZM48.6223 106.731C48.6223 107.778 48.9386 108.301 49.5712 108.301C50.1372 108.301 50.695 108.17 51.2444 107.908L51.5315 107.772L51.5315 104.957L49.6836 105.196C49.309 105.242 49.0385 105.389 48.872 105.64C48.7055 105.89 48.6223 106.254 48.6223 106.731Z"
		fill="#f5891d" fill-rule="nonzero" opacity="1" stroke="none" vectornator:layerName="path"/>
	<path
		d="M56.6505 100.505C56.9252 100.505 57.3914 100.573 58.0489 100.71L58.3486 100.761L58.3111 101.802C57.6452 101.699 57.1541 101.648 56.8378 101.648C56.1303 101.648 55.6496 101.878 55.3958 102.339C55.1419 102.8 55.015 103.652 55.015 104.898C55.015 106.143 55.1336 107.01 55.3708 107.499C55.608 107.988 56.1012 108.232 56.8503 108.232L58.3236 108.079L58.3611 109.137C57.587 109.296 57.0085 109.375 56.6256 109.375C55.6517 109.375 54.9796 109.034 54.6092 108.352C54.2388 107.67 54.0536 106.518 54.0536 104.898C54.0536 103.277 54.2533 102.14 54.6529 101.486C55.0524 100.832 55.7183 100.505 56.6505 100.505Z"
		fill="#f5891d" fill-rule="nonzero" opacity="1" stroke="none" vectornator:layerName="path"/>
	<path
		d="M62.9932 101.785L61.008 101.785L61.008 105.861C61.008 106.839 61.06 107.482 61.164 107.789C61.2681 108.096 61.5157 108.25 61.9069 108.25L63.0181 108.147L63.0806 109.205C62.5229 109.33 62.0984 109.392 61.807 109.392C61.1578 109.392 60.7083 109.176 60.4586 108.744C60.2089 108.312 60.084 107.488 60.084 106.271L60.084 101.785L59.1976 101.785L59.1976 100.676L60.084 100.676L60.084 98.0659L61.008 98.0659L61.008 100.676L62.9932 100.676L62.9932 101.785Z"
		fill="#f5891d" fill-rule="nonzero" opacity="1" stroke="none" vectornator:layerName="path"/>
	<path
		d="M68.0373 100.676L68.9737 100.676L68.9737 109.205L68.0373 109.205L68.0373 108.608C67.413 109.12 66.7971 109.375 66.1894 109.375C65.3404 109.375 64.7765 109.074 64.4976 108.471C64.2188 107.869 64.0794 106.754 64.0794 105.128L64.0794 100.676L65.0158 100.676L65.0158 105.111C65.0158 106.35 65.0949 107.181 65.253 107.601C65.4112 108.022 65.7691 108.232 66.3268 108.232C66.6014 108.232 66.8803 108.178 67.1633 108.07C67.4463 107.962 67.6627 107.857 67.8125 107.755L68.0373 107.601L68.0373 100.676Z"
		fill="#f5891d" fill-rule="nonzero" opacity="1" stroke="none" vectornator:layerName="path"/>
	<path
		d="M70.7716 109.205L70.7716 100.676L71.6955 100.676L71.6955 101.836C72.4197 101.153 73.1813 100.704 73.9803 100.488L73.9803 101.785C73.6307 101.876 73.2666 102.018 72.8879 102.211C72.5091 102.404 72.2199 102.575 72.0201 102.723L71.708 102.945L71.708 109.205L70.7716 109.205Z"
		fill="#f5891d" fill-rule="nonzero" opacity="1" stroke="none" vectornator:layerName="path"/>
	<path
		d="M75.0915 109.205L75.0915 100.676L76.028 100.676L76.028 109.205L75.0915 109.205ZM75.0915 98.7482L75.0915 97.2642L76.028 97.2642L76.028 98.7482L75.0915 98.7482Z"
		fill="#f5891d" fill-rule="nonzero" opacity="1" stroke="none" vectornator:layerName="path"/>
	<path
		d="M78.7623 109.205L77.8259 109.205L77.8259 100.676L78.7498 100.676L78.7498 101.273C79.424 100.761 80.0691 100.505 80.685 100.505C81.5174 100.505 82.0771 100.812 82.3643 101.426C82.6515 102.04 82.7951 103.132 82.7951 104.701L82.7951 109.205L81.8711 109.205L81.8711 104.736C81.8711 103.553 81.7858 102.743 81.6152 102.305C81.4446 101.867 81.0804 101.648 80.5227 101.648C80.2564 101.648 79.9754 101.702 79.6799 101.81C79.3845 101.918 79.1576 102.023 78.9995 102.126L78.7623 102.279L78.7623 109.205Z"
		fill="#f5891d" fill-rule="nonzero" opacity="1" stroke="none" vectornator:layerName="path"/>
	<path
		d="M86.9402 113.213C85.9414 113.213 85.2443 113.029 84.8489 112.659C84.4535 112.289 84.2559 111.616 84.2559 110.638C84.2559 110.171 84.3308 109.793 84.4806 109.503C84.6304 109.213 84.8843 108.886 85.2422 108.522C85.0091 108.306 84.8926 107.914 84.8926 107.345C84.8926 107.152 84.9967 106.794 85.2047 106.271L85.3171 105.998C84.6596 105.589 84.3308 104.73 84.3308 103.422C84.3308 101.478 85.109 100.505 86.6655 100.505C87.0651 100.505 87.4355 100.562 87.7768 100.676L87.964 100.727L89.8119 100.659L89.8119 101.75L88.6258 101.716C88.9004 102.092 89.0378 102.66 89.0378 103.422C89.0378 104.491 88.8443 105.239 88.4572 105.665C88.0702 106.092 87.4605 106.305 86.6281 106.305C86.4034 106.305 86.1994 106.282 86.0163 106.237C85.8665 106.737 85.7916 107.061 85.7916 107.209C85.7916 107.562 85.8706 107.78 86.0288 107.866C86.1869 107.951 86.6655 107.994 87.4646 107.994C88.2637 107.994 88.838 108.164 89.1876 108.505C89.5372 108.847 89.712 109.512 89.712 110.501C89.712 112.309 88.7881 113.213 86.9402 113.213ZM85.1798 110.535C85.1798 111.138 85.3026 111.556 85.5481 111.789C85.7936 112.022 86.2473 112.139 86.909 112.139C87.5707 112.139 88.0452 112.014 88.3324 111.763C88.6195 111.513 88.7631 111.095 88.7631 110.51C88.7631 109.924 88.6591 109.546 88.451 109.375C88.2429 109.205 87.835 109.12 87.2274 109.12L85.879 109.034C85.6043 109.307 85.4191 109.546 85.3234 109.751C85.2276 109.955 85.1798 110.217 85.1798 110.535ZM85.2672 103.422C85.2672 104.093 85.3775 104.571 85.598 104.855C85.8186 105.139 86.1828 105.281 86.6905 105.281C87.1983 105.281 87.5603 105.139 87.7768 104.855C87.9932 104.571 88.1014 104.09 88.1014 103.414C88.1014 102.737 87.9932 102.257 87.7768 101.972C87.5603 101.688 87.1983 101.546 86.6905 101.546C86.1828 101.546 85.8186 101.691 85.598 101.981C85.3775 102.271 85.2672 102.751 85.2672 103.422Z"
		fill="#f5891d" fill-rule="nonzero" opacity="1" stroke="none" vectornator:layerName="path"/>
	<path
		d="M93.8572 109.205L93.8572 97.4007L99.1135 97.4007L99.1135 98.5606L94.8185 98.5606L94.8185 102.637L98.3644 102.637L98.3644 103.78L94.8185 103.78L94.8185 108.045L99.1135 108.045L99.1135 109.205L93.8572 109.205Z"
		fill="#f5891d" fill-rule="nonzero" opacity="1" stroke="none" vectornator:layerName="path"/>
	<path
		d="M99.975 100.676L100.999 100.676L102.522 104.019L104.045 100.676L105.069 100.676L103.084 104.906L105.057 109.205L104.033 109.205L102.522 105.878L100.999 109.205L99.975 109.205L101.935 104.94L99.975 100.676Z"
		fill="#f5891d" fill-rule="nonzero" opacity="1" stroke="none" vectornator:layerName="path"/>
	<path
		d="M110.338 108.147L110.7 108.096L110.725 109.102C109.776 109.284 108.965 109.375 108.29 109.375C107.391 109.375 106.755 109.02 106.38 108.309C106.005 107.599 105.818 106.493 105.818 104.991C105.818 102.001 106.688 100.505 108.428 100.505C109.268 100.505 109.897 100.826 110.313 101.469C110.729 102.112 110.937 103.121 110.937 104.497L110.887 105.469L106.767 105.469C106.767 106.413 106.892 107.112 107.142 107.567C107.391 108.022 107.826 108.25 108.446 108.25C109.067 108.25 109.697 108.215 110.338 108.147ZM110.001 104.446C110.001 103.399 109.878 102.66 109.633 102.228C109.387 101.796 108.987 101.58 108.434 101.58C107.88 101.58 107.464 101.807 107.185 102.262C106.907 102.717 106.763 103.445 106.755 104.446L110.001 104.446Z"
		fill="#f5891d" fill-rule="nonzero" opacity="1" stroke="none" vectornator:layerName="path"/>
	<path
		d="M114.733 100.505C115.007 100.505 115.474 100.573 116.131 100.71L116.431 100.761L116.393 101.802C115.727 101.699 115.236 101.648 114.92 101.648C114.213 101.648 113.732 101.878 113.478 102.339C113.224 102.8 113.097 103.652 113.097 104.898C113.097 106.143 113.216 107.01 113.453 107.499C113.69 107.988 114.183 108.232 114.933 108.232L116.406 108.079L116.443 109.137C115.669 109.296 115.091 109.375 114.708 109.375C113.734 109.375 113.062 109.034 112.691 108.352C112.321 107.67 112.136 106.518 112.136 104.898C112.136 103.277 112.336 102.14 112.735 101.486C113.135 100.832 113.801 100.505 114.733 100.505Z"
		fill="#f5891d" fill-rule="nonzero" opacity="1" stroke="none" vectornator:layerName="path"/>
	<path
		d="M121.737 100.676L122.674 100.676L122.674 109.205L121.737 109.205L121.737 108.608C121.113 109.12 120.497 109.375 119.889 109.375C119.04 109.375 118.476 109.074 118.198 108.471C117.919 107.869 117.779 106.754 117.779 105.128L117.779 100.676L118.716 100.676L118.716 105.111C118.716 106.35 118.795 107.181 118.953 107.601C119.111 108.022 119.469 108.232 120.027 108.232C120.301 108.232 120.58 108.178 120.863 108.07C121.146 107.962 121.363 107.857 121.512 107.755L121.737 107.601L121.737 100.676Z"
		fill="#f5891d" fill-rule="nonzero" opacity="1" stroke="none" vectornator:layerName="path"/>
	<path
		d="M127.705 101.785L125.72 101.785L125.72 105.861C125.72 106.839 125.772 107.482 125.876 107.789C125.98 108.096 126.228 108.25 126.619 108.25L127.73 108.147L127.793 109.205C127.235 109.33 126.81 109.392 126.519 109.392C125.87 109.392 125.42 109.176 125.171 108.744C124.921 108.312 124.796 107.488 124.796 106.271L124.796 101.785L123.91 101.785L123.91 100.676L124.796 100.676L124.796 98.0659L125.72 98.0659L125.72 100.676L127.705 100.676L127.705 101.785Z"
		fill="#f5891d" fill-rule="nonzero" opacity="1" stroke="none" vectornator:layerName="path"/>
	<path
		d="M128.854 109.205L128.854 100.676L129.79 100.676L129.79 109.205L128.854 109.205ZM128.854 98.7482L128.854 97.2642L129.79 97.2642L129.79 98.7482L128.854 98.7482Z"
		fill="#f5891d" fill-rule="nonzero" opacity="1" stroke="none" vectornator:layerName="path"/>
	<path
		d="M131.313 104.923C131.313 103.365 131.517 102.239 131.925 101.546C132.333 100.852 133.022 100.505 133.992 100.505C134.961 100.505 135.648 100.852 136.052 101.546C136.455 102.239 136.657 103.365 136.657 104.923C136.657 106.481 136.466 107.613 136.083 108.318C135.7 109.023 135.001 109.375 133.985 109.375C132.97 109.375 132.271 109.023 131.888 108.318C131.505 107.613 131.313 106.481 131.313 104.923ZM132.275 104.906C132.275 106.146 132.385 107.016 132.606 107.516C132.826 108.016 133.288 108.267 133.992 108.267C134.695 108.267 135.155 108.019 135.371 107.525C135.588 107.03 135.696 106.157 135.696 104.906C135.696 103.655 135.575 102.794 135.334 102.322C135.092 101.85 134.645 101.614 133.992 101.614C133.338 101.614 132.889 101.85 132.643 102.322C132.398 102.794 132.275 103.655 132.275 104.906Z"
		fill="#f5891d" fill-rule="nonzero" opacity="1" stroke="none" vectornator:layerName="path"/>
	<path
		d="M139.117 109.205L138.18 109.205L138.18 100.676L139.104 100.676L139.104 101.273C139.779 100.761 140.424 100.505 141.04 100.505C141.872 100.505 142.432 100.812 142.719 101.426C143.006 102.04 143.15 103.132 143.15 104.701L143.15 109.205L142.226 109.205L142.226 104.736C142.226 103.553 142.14 102.743 141.97 102.305C141.799 101.867 141.435 101.648 140.877 101.648C140.611 101.648 140.33 101.702 140.035 101.81C139.739 101.918 139.512 102.023 139.354 102.126L139.117 102.279L139.117 109.205Z"
		fill="#f5891d" fill-rule="nonzero" opacity="1" stroke="none" vectornator:layerName="path"/>
	<path
		d="M150.179 98.373C148.93 98.373 148.306 99.0155 148.306 100.301C148.306 101.017 148.45 101.509 148.737 101.776C149.024 102.043 149.607 102.311 150.485 102.578C151.363 102.845 151.985 103.192 152.351 103.618C152.718 104.045 152.901 104.747 152.901 105.725C152.901 108.147 151.981 109.358 150.142 109.358C149.534 109.358 148.772 109.262 147.857 109.068L147.407 108.983L147.507 107.891C148.639 108.096 149.501 108.198 150.092 108.198C151.323 108.198 151.939 107.408 151.939 105.827C151.939 105.19 151.804 104.733 151.534 104.454C151.263 104.176 150.757 103.94 150.017 103.746C149.043 103.462 148.352 103.095 147.944 102.646C147.536 102.197 147.332 101.443 147.332 100.386C147.332 98.2706 148.26 97.213 150.117 97.213C150.724 97.213 151.452 97.2983 152.302 97.4689L152.726 97.5542L152.639 98.663C151.482 98.4696 150.662 98.373 150.179 98.373Z"
		fill="#f5891d" fill-rule="nonzero" opacity="1" stroke="none" vectornator:layerName="path"/>
	<path
		d="M153.687 100.676L154.624 100.676L156.184 108.096L156.596 108.096L158.17 100.676L159.106 100.676L156.509 112.992L155.573 112.992L156.384 109.205L155.46 109.205L153.687 100.676Z"
		fill="#f5891d" fill-rule="nonzero" opacity="1" stroke="none" vectornator:layerName="path"/>
	<path
		d="M162.177 101.648C161.27 101.648 160.817 102.08 160.817 102.945C160.817 103.343 160.921 103.624 161.129 103.789C161.337 103.954 161.811 104.124 162.552 104.301C163.293 104.477 163.817 104.724 164.125 105.043C164.433 105.361 164.587 105.958 164.587 106.834C164.587 107.709 164.381 108.352 163.969 108.761C163.557 109.171 162.956 109.375 162.165 109.375C161.649 109.375 161.041 109.296 160.342 109.137L159.968 109.051L160.018 107.943C160.966 108.136 161.682 108.232 162.165 108.232C162.648 108.232 163.016 108.127 163.27 107.917C163.524 107.707 163.651 107.354 163.651 106.859C163.651 106.365 163.543 106.029 163.326 105.853C163.11 105.677 162.635 105.509 161.903 105.35C161.17 105.19 160.65 104.957 160.342 104.65C160.034 104.343 159.88 103.775 159.88 102.945C159.88 102.114 160.094 101.5 160.523 101.102C160.952 100.704 161.487 100.505 162.128 100.505C162.635 100.505 163.272 100.585 164.038 100.744L164.387 100.829L164.362 101.921C163.439 101.739 162.71 101.648 162.177 101.648Z"
		fill="#f5891d" fill-rule="nonzero" opacity="1" stroke="none" vectornator:layerName="path"/>
	<path
		d="M169.257 101.785L167.272 101.785L167.272 105.861C167.272 106.839 167.324 107.482 167.428 107.789C167.532 108.096 167.779 108.25 168.17 108.25L169.282 108.147L169.344 109.205C168.786 109.33 168.362 109.392 168.071 109.392C167.421 109.392 166.972 109.176 166.722 108.744C166.472 108.312 166.348 107.488 166.348 106.271L166.348 101.785L165.461 101.785L165.461 100.676L166.348 100.676L166.348 98.0659L167.272 98.0659L167.272 100.676L169.257 100.676L169.257 101.785Z"
		fill="#f5891d" fill-rule="nonzero" opacity="1" stroke="none" vectornator:layerName="path"/>
	<path
		d="M174.65 108.147L175.013 108.096L175.037 109.102C174.089 109.284 173.277 109.375 172.603 109.375C171.704 109.375 171.067 109.02 170.693 108.309C170.318 107.599 170.131 106.493 170.131 104.991C170.131 102.001 171.001 100.505 172.74 100.505C173.581 100.505 174.209 100.826 174.625 101.469C175.042 102.112 175.25 103.121 175.25 104.497L175.2 105.469L171.08 105.469C171.08 106.413 171.204 107.112 171.454 107.567C171.704 108.022 172.139 108.25 172.759 108.25C173.379 108.25 174.01 108.215 174.65 108.147ZM174.313 104.446C174.313 103.399 174.191 102.66 173.945 102.228C173.699 101.796 173.3 101.58 172.746 101.58C172.193 101.58 171.777 101.807 171.498 102.262C171.219 102.717 171.075 103.445 171.067 104.446L174.313 104.446Z"
		fill="#f5891d" fill-rule="nonzero" opacity="1" stroke="none" vectornator:layerName="path"/>
	<path
		d="M177.647 109.205L176.711 109.205L176.711 100.676L177.634 100.676L177.634 101.273C178.259 100.761 178.866 100.505 179.457 100.505C180.231 100.505 180.772 100.795 181.08 101.375C181.355 101.148 181.711 100.946 182.148 100.77C182.585 100.593 182.97 100.505 183.303 100.505C184.135 100.505 184.695 100.809 184.982 101.418C185.269 102.026 185.413 103.121 185.413 104.701L185.413 109.205L184.476 109.205L184.476 104.736C184.476 103.553 184.393 102.743 184.227 102.305C184.06 101.867 183.707 101.648 183.166 101.648C182.891 101.648 182.608 101.702 182.316 101.81C182.025 101.918 181.8 102.023 181.642 102.126L181.405 102.279C181.513 102.655 181.567 103.485 181.567 104.77L181.567 109.205L180.631 109.205L180.631 104.804C180.631 103.576 180.55 102.743 180.387 102.305C180.225 101.867 179.869 101.648 179.32 101.648C179.054 101.648 178.781 101.702 178.502 101.81C178.223 101.918 178.009 102.023 177.859 102.126L177.647 102.279L177.647 109.205Z"
		fill="#f5891d" fill-rule="nonzero" opacity="1" stroke="none" vectornator:layerName="path"/>
</g>
	<g opacity="1" vectornator:layerName="g">
<path
	d="M1.3328 128.12L1.3328 81.88L32.3508 81.88L32.3508 90.04L11.1956 90.04L11.1956 103.64L28.4914 103.64L28.4914 111.8L11.1956 111.8L11.1956 128.12L1.3328 128.12Z"
	fill="#ffffff" fill-opacity="0.5" fill-rule="nonzero" opacity="1" stroke="none"
	vectornator:layerName="path"/>
		<path
			d="M49.1463 112.616L49.1463 128.12L39.2834 128.12L39.2834 81.88L58.1512 81.88C69.5872 81.88 75.3042 86.9572 75.3042 97.112C75.3042 103.141 72.9222 107.584 68.1572 110.44L75.0902 128.12L64.2982 128.12L58.6522 112.616L49.1463 112.616ZM58.2942 104.592C60.6292 104.592 62.3682 103.912 63.5122 102.552C64.6552 101.192 65.2272 99.4012 65.2272 97.18C65.2272 94.9588 64.6192 93.1908 63.4042 91.876C62.1892 90.5612 60.4382 89.904 58.1512 89.904L49.1463 89.904L49.1463 104.592L58.2942 104.592Z"
			fill="#ffffff" fill-opacity="0.5" fill-rule="nonzero" opacity="1" stroke="none"
			vectornator:layerName="path"/>
		<path d="M83.5952 128.12L83.5952 81.88L93.4582 81.88L93.4582 128.12L83.5952 128.12Z"
		      fill="#ffffff" fill-opacity="0.5" fill-rule="nonzero" opacity="1" stroke="none"
		      vectornator:layerName="path"/>
		<path
			d="M100.104 81.88L110.467 81.88L116.471 120.096L117.543 120.096L126.262 81.88L137.698 81.88L146.417 120.096L147.489 120.096L153.492 81.88L163.856 81.88L154.565 128.12L139.627 128.12L131.98 92.964L124.333 128.12L109.395 128.12L100.104 81.88Z"
			fill="#ffffff" fill-opacity="0.5" fill-rule="nonzero" opacity="1" stroke="none"
			vectornator:layerName="path"/>
		<path
			d="M180.58 117.24C182.009 119.597 184.653 120.776 188.513 120.776C192.372 120.776 195.005 119.586 196.41 117.206C197.816 114.826 198.519 110.837 198.519 105.238C198.519 99.6392 197.804 95.5708 196.375 93.032C194.945 90.4932 192.325 89.224 188.513 89.224C184.701 89.224 182.081 90.4932 180.651 93.032C179.222 95.5708 178.507 99.6392 178.507 105.238C178.507 110.837 179.198 114.837 180.58 117.24ZM204.093 123.224C201.092 127.032 195.898 128.936 188.513 128.936C181.127 128.936 175.922 127.021 172.897 123.19C169.871 119.359 168.358 113.364 168.358 105.204C168.358 97.044 169.871 90.9808 172.897 87.014C175.922 83.0472 181.127 81.064 188.513 81.064C195.898 81.064 201.103 83.0472 204.129 87.014C207.155 90.9808 208.667 97.044 208.667 105.204C208.667 113.364 207.143 119.371 204.093 123.224Z"
			fill="#ffffff" fill-opacity="0.5" fill-rule="nonzero" opacity="1" stroke="none"
			vectornator:layerName="path"/>
</g>
</g>
</g>
</svg>
