<?xml version="1.0" encoding="UTF-8"?><!DOCTYPE svg PUBLIC "-//W3C//DTD SVG 1.1//EN" "http://www.w3.org/Graphics/SVG/1.1/DTD/svg11.dtd"><svg xmlns="http://www.w3.org/2000/svg" xmlns:xlink="http://www.w3.org/1999/xlink"><symbol id="ico-mono-arrow-right" viewBox="0 0 23 19">
    <path d="M13.359.153h-3.137l8.264 8.227H.623v2.332h17.863l-8.264 8.226h3.137l9.399-9.375z" fill-rule="evenodd"/>
</symbol><symbol id="ico-mono-caret" viewBox="0 0 128 80">
    <path d="M1.5 0C.7 0 .406.487.906 1.188L63 78.907c.6.6 1.406.606 1.906-.094l62.188-77.625c.5-.7.206-1.188-.594-1.188H1.5z" fill-rule="nonzero"/>
</symbol><symbol id="ico-mono-chat" viewBox="0 0 512 512">
    <path d="M426.313 431.884c8.686-5.322 16.95-11.248 24.699-17.774C490.341 380.992 512 336.738 512 289.5c0-34.677-11.83-68.185-34.212-96.901-20.21-25.929-47.98-46.685-80.6-60.319-10.277-23.593-26.547-45.178-48.175-63.391C310.426 36.395 259.281 18.5 205 18.5S99.574 36.395 60.987 68.889C21.659 102.008 0 146.262 0 193.5s21.659 91.492 60.987 124.611c7.608 6.407 15.711 12.236 24.223 17.483A357.754 357.754 0 0 1 33.304 396.5a353.723 353.723 0 0 0 94.881-21.226C163.917 429.715 231.698 464.5 307 464.5c16.201 0 32.118-1.606 47.51-4.707 38.12 18.321 80.007 30.053 124.186 33.707a357.773 357.773 0 0 1-52.383-61.616zM307 434.5c-62.92 0-119.477-27.503-150.494-70.907 15.697 3.233 31.948 4.907 48.494 4.907 54.281 0 105.426-17.895 144.013-50.389C388.341 284.992 410 240.738 410 193.5c0-7.463-.544-14.85-1.609-22.132C453.909 198.304 482 242.278 482 289.5c0 79.953-78.505 145-175 145z"/>
</symbol><symbol id="ico-mono-close" viewBox="0 0 48 48">
    <path d="M28.228 23.986L47.092 5.122a2.998 2.998 0 0 0 0-4.242 2.998 2.998 0 0 0-4.242 0L23.986 19.744 5.121.88a2.998 2.998 0 0 0-4.242 0 2.998 2.998 0 0 0 0 4.242l18.865 18.864L.879 42.85a2.998 2.998 0 1 0 4.242 4.241l18.865-18.864L42.85 47.091a2.991 2.991 0 0 0 2.121.879 2.998 2.998 0 0 0 2.121-5.121L28.228 23.986z" fill-rule="nonzero"/>
</symbol><symbol id="ico-mono-handshake" viewBox="0 0 38 32">
    <path d="M4.736 19.047a.665.665 0 0 1-.465.189.665.665 0 0 1-.466-.189C1.705 17 .55 14.277.55 11.38c0-2.896 1.157-5.619 3.256-7.666C7.585.03 13.523-.516 17.928 2.421c.3.2.377.6.172.893a.67.67 0 0 1-.916.167C13.302.894 8.068 1.374 4.736 4.623c-1.85 1.805-2.87 4.205-2.87 6.757 0 2.553 1.02 4.954 2.87 6.759a.631.631 0 0 1 0 .908zm29.841-.305a2.632 2.632 0 0 1-.637 2.827 2.764 2.764 0 0 1-1.944.786c-.078 0-.153-.015-.23-.022a2.626 2.626 0 0 1-.783 2.121 2.774 2.774 0 0 1-1.944.785c-.078 0-.154-.015-.231-.022a2.626 2.626 0 0 1-.783 2.122 2.776 2.776 0 0 1-1.944.785c-.077 0-.154-.015-.23-.022a2.627 2.627 0 0 1-.783 2.122 2.776 2.776 0 0 1-1.944.784c-.705 0-1.409-.26-1.945-.784l-1.158-1.13a2.622 2.622 0 0 1-.72 1.274l-.925.901a2.774 2.774 0 0 1-1.944.785 2.773 2.773 0 0 1-1.945-.785 2.627 2.627 0 0 1-.782-2.122c-.077.007-.154.022-.23.022a2.775 2.775 0 0 1-1.945-.784 2.627 2.627 0 0 1-.782-2.123c-.078.007-.154.022-.231.022a2.77 2.77 0 0 1-1.945-.784 2.627 2.627 0 0 1-.782-2.122c-.077.007-.153.023-.231.023a2.765 2.765 0 0 1-1.945-.786 2.64 2.64 0 0 1 0-3.794l.925-.9a2.763 2.763 0 0 1 1.944-.787c.735 0 1.426.28 1.945.786.519.506.805 1.18.805 1.897 0 .084-.017.166-.025.249.788-.062 1.6.177 2.177.74.52.505.806 1.179.806 1.896 0 .076-.016.15-.023.225.78-.064 1.58.183 2.175.763.595.58.847 1.362.782 2.122a2.77 2.77 0 0 1 2.175.763c.032.03.053.066.082.098.018.014.04.02.057.037l2.671 2.606a1.46 1.46 0 0 0 2.026 0 1.375 1.375 0 0 0 0-1.977l-6.543-6.383a.63.63 0 0 1 0-.909.67.67 0 0 1 .931 0l6.544 6.384a1.46 1.46 0 0 0 2.026 0 1.375 1.375 0 0 0 0-1.977l-6.543-6.383a.63.63 0 0 1 0-.908.67.67 0 0 1 .931 0l6.543 6.383a1.46 1.46 0 0 0 2.026 0 1.375 1.375 0 0 0 0-1.976l-6.542-6.384a.631.631 0 0 1 0-.908.67.67 0 0 1 .93 0l6.544 6.383c.538.525 1.483.527 2.026 0a1.372 1.372 0 0 0 0-1.976L22.742 8.669l-5.306 5.174c-1.806 1.762-4.745 1.762-6.55 0a1.836 1.836 0 0 1 0-2.639l7.591-7.405c2.1-2.048 4.89-3.176 7.86-3.176 2.97 0 5.76 1.128 7.86 3.176a10.685 10.685 0 0 1 .38 14.943zM8.572 21.707l.924-.901a1.375 1.375 0 0 0 0-1.977 1.44 1.44 0 0 0-1.013-.41c-.382 0-.742.145-1.012.41l-.925.901a1.375 1.375 0 0 0 0 1.977c.541.527 1.485.527 2.026 0zm2.958 2.884l.924-.9c.27-.264.42-.616.42-.99a1.37 1.37 0 0 0-.42-.987c-.27-.263-.63-.41-1.013-.41-.383 0-.742.147-1.013.41l-.924.901a1.375 1.375 0 0 0 0 1.976 1.46 1.46 0 0 0 2.026 0zm2.957 2.885l.925-.9a1.373 1.373 0 0 0 0-1.977 1.447 1.447 0 0 0-1.014-.41c-.366 0-.734.137-1.013.41l-.924.9a1.376 1.376 0 0 0 0 1.977 1.462 1.462 0 0 0 2.026 0zm3.882.008a1.447 1.447 0 0 0-1.013-.41c-.367 0-.734.137-1.013.41l-.924.9a1.375 1.375 0 0 0 0 1.977 1.46 1.46 0 0 0 2.026 0l.924-.901a1.375 1.375 0 0 0 0-1.976zM33.265 4.708c-1.85-1.806-4.31-2.8-6.928-2.8-2.618 0-5.078.994-6.928 2.8l-7.592 7.405a.572.572 0 0 0 0 .821 3.378 3.378 0 0 0 4.688 0l5.771-5.628a.667.667 0 0 1 .932 0l10.601 10.342a9.417 9.417 0 0 0-.544-12.94z"/>
</symbol><symbol id="ico-mono-logo" viewBox="0 0 331 79">
    <path d="M15.31 76.777V50.148h26.848V36.835H15.31v-22.19h32.84V1.334H0v75.444h15.31zm75.885-25.296l8.764 25.296h16.754L105.95 47.93c7.394-4.66 11.095-11.907 11.095-21.746 0-16.566-8.876-24.85-26.629-24.85H61.13v75.443h15.31V51.481h14.756zm-.554-13.093H76.439V14.424h13.978c3.551 0 6.27 1.074 8.155 3.218 1.887 2.147 2.83 5.03 2.83 8.653 0 3.626-.888 6.547-2.663 8.765-1.775 2.22-4.475 3.328-8.098 3.328m56.803-37.055h-15.31v75.444h15.31V1.333zM174.4 76.777h23.19l11.869-57.36 11.873 57.36h23.185l14.426-75.444h-16.09l-9.317 62.35h-1.664l-13.537-62.35h-17.752l-13.534 62.35h-1.664l-9.318-62.35h-16.088L174.4 76.777zm109.503-37.335c0-9.133 1.109-15.77 3.328-19.916 2.218-4.14 6.286-6.211 12.205-6.211 5.915 0 9.984 2.07 12.203 6.211 2.218 4.146 3.328 10.783 3.328 19.916 0 9.136-1.092 15.644-3.272 19.527-2.183 3.884-6.267 5.825-12.259 5.825s-10.08-1.94-12.26-5.825c-2.181-3.883-3.273-10.391-3.273-19.527m46.82-.055c0-13.313-2.348-23.205-7.047-29.679-4.697-6.47-12.777-9.707-24.24-9.707-11.467 0-19.547 3.237-24.243 9.707-4.696 6.474-7.045 16.366-7.045 29.68 0 13.312 2.35 23.094 7.045 29.345 4.696 6.25 12.776 9.374 24.243 9.374 11.463 0 19.543-3.124 24.24-9.374 4.699-6.251 7.047-16.033 7.047-29.346" fill-rule="nonzero"/>
</symbol><symbol id="ico-mono-phone" viewBox="0 0 384 384">
    <path d="M353.188 252.052c-23.51 0-46.594-3.677-68.469-10.906-10.719-3.656-23.896-.302-30.438 6.417l-43.177 32.594c-50.073-26.729-80.917-57.563-107.281-107.26l31.635-42.052c8.219-8.208 11.167-20.198 7.635-31.448-7.26-21.99-10.948-45.063-10.948-68.583C132.146 13.823 118.323 0 101.333 0h-70.52C13.823 0 0 13.823 0 30.813 0 225.563 158.438 384 353.188 384c16.99 0 30.813-13.823 30.813-30.813v-70.323c-.001-16.989-13.824-30.812-30.813-30.812z"/>
</symbol><symbol id="ico-mono-search" viewBox="0 0 14 14">
    <path fill-rule="evenodd" d="M13.904 13.221l-3.678-3.68A5.796 5.796 0 1 0 .006 5.798a5.796 5.796 0 0 0 5.796 5.798 5.763 5.763 0 0 0 3.741-1.372l3.678 3.68c.125.125.33.125.455 0l.228-.228a.323.323 0 0 0 0-.455zM.972 5.798A4.835 4.835 0 0 1 5.802.967a4.835 4.835 0 0 1 4.83 4.831 4.837 4.837 0 0 1-4.83 4.832 4.837 4.837 0 0 1-4.83-4.832z"/>
</symbol><symbol id="ico-mono-shopping-cart" viewBox="0 0 512 512">
    <path d="M490.299 185.717H384.08L324.496 49.284c-3.315-7.591-12.157-11.06-19.749-7.743-7.592 3.315-11.059 12.158-7.743 19.75l54.34 124.427H160.656l54.34-124.427c3.315-7.592-.151-16.434-7.743-19.75-7.591-3.317-16.435.15-19.749 7.743L127.92 185.717H21.701c-13.895 0-24.207 12.579-21.167 25.82l55.935 243.63c2.221 9.674 11.015 16.55 21.167 16.55h356.728c10.152 0 18.946-6.876 21.167-16.55l55.935-243.63c3.04-13.24-7.273-25.82-21.167-25.82zm-359.557 46.004c-2.004 0-4.041-.404-5.996-1.258-7.592-3.315-11.059-12.157-7.743-19.75l11.268-25.802h32.736l-16.512 37.808c-2.461 5.639-7.971 9.002-13.753 9.002zM181 391.717c0 8.284-6.716 15-15 15s-15-6.716-15-15v-110c0-8.284 6.716-15 15-15s15 6.716 15 15zm90 0c0 8.284-6.716 15-15 15s-15-6.716-15-15v-110c0-8.284 6.716-15 15-15s15 6.716 15 15zm90 0c0 8.284-6.716 15-15 15s-15-6.716-15-15v-110c0-8.284 6.716-15 15-15s15 6.716 15 15zm26.253-161.254a14.938 14.938 0 0 1-5.995 1.258c-5.782 0-11.292-3.362-13.754-9.001l-16.512-37.808h32.736l11.268 25.802c3.316 7.592-.151 16.434-7.743 19.749z"/>
</symbol><symbol id="ico-mono-social-facebook" viewBox="0 0 11 19">
    <path fill-rule="evenodd" d="M.983 5.978h1.948V4.159c0-.801.021-2.038.627-2.805C4.197.543 5.074-.008 6.582-.008c2.457 0 3.492.336 3.492.336l-.487 2.774s-.812-.226-1.569-.226c-.758 0-1.436.261-1.436.988v2.114h3.107l-.217 2.709h-2.89v9.408H2.931V8.687H.983V5.978z"/>
</symbol><symbol id="ico-mono-social-instagram" viewBox="0 0 19 19">
    <path fill-rule="evenodd" d="M15.292.204H3.733C1.726.204.092 1.772.092 3.701v11.107c0 1.929 1.634 3.498 3.641 3.498h11.559c2.008 0 3.641-1.569 3.641-3.498V3.701c0-1.929-1.633-3.497-3.641-3.497zm1.045 2.086l.417-.001v3.067l-3.184.011-.011-3.069 2.778-.008zM6.824 7.397a3.352 3.352 0 0 1 2.689-1.329 3.35 3.35 0 0 1 2.688 1.329c.394.524.629 1.164.629 1.858 0 1.756-1.489 3.185-3.317 3.185-1.829 0-3.316-1.429-3.316-3.185 0-.694.235-1.334.627-1.858zm10.274 7.411c0 .957-.81 1.734-1.806 1.734H3.733c-.996 0-1.805-.777-1.805-1.734V7.397h2.813a4.736 4.736 0 0 0-.38 1.858c0 2.728 2.311 4.95 5.152 4.95s5.152-2.222 5.152-4.95c0-.657-.138-1.284-.38-1.858h2.813v7.411z"/>
</symbol><symbol id="ico-mono-social-linkedin" viewBox="0 0 21 21">
    <path fill-rule="evenodd" d="M4.698 20.988H.339V6.977h4.359v14.011zM2.519 5.063A2.524 2.524 0 0 1-.007 2.538a2.524 2.524 0 1 1 5.05 0 2.525 2.525 0 0 1-2.524 2.525zm18.488 15.925h-4.354v-6.814c0-1.624-.028-3.715-2.263-3.715-2.266 0-2.611 1.771-2.611 3.599v6.93h-4.35V6.977h4.174v1.915h.06c.581-1.101 2.002-2.262 4.12-2.262 4.409 0 5.224 2.901 5.224 6.674v7.684z"/>
</symbol><symbol id="ico-mono-social-twitter" viewBox="0 0 19 16">
    <path fill-rule="evenodd" d="M18.995 2.631a8.022 8.022 0 0 1-2.224.586 3.758 3.758 0 0 0 1.702-2.058 7.948 7.948 0 0 1-2.459.902A3.939 3.939 0 0 0 13.188.886c-2.138 0-3.871 1.667-3.871 3.72 0 .292.033.576.099.847-3.218-.155-6.07-1.635-7.981-3.887a3.601 3.601 0 0 0-.524 1.871c0 1.29.683 2.43 1.723 3.097a3.999 3.999 0 0 1-1.755-.465v.046c0 1.804 1.334 3.307 3.107 3.649-.325.086-.667.13-1.021.13-.249 0-.493-.023-.728-.065.492 1.476 1.922 2.554 3.617 2.582a7.972 7.972 0 0 1-4.809 1.593c-.313 0-.622-.017-.924-.052a11.293 11.293 0 0 0 5.936 1.671c7.123 0 11.017-5.668 11.017-10.584 0-.162-.004-.324-.011-.483a7.668 7.668 0 0 0 1.932-1.925"/>
</symbol><symbol id="ico-mono-social-xing" viewBox="0 0 20 20">
    <path fill-rule="evenodd" d="M12.747 19.899L8.2 12.097 15.257-.004h4.75L12.95 12.097l4.548 7.802h-4.751zm-7.464-6.018l3.528-5.685-2.646-4.563H1.687l2.646 4.563-3.528 5.685h4.478z"/>
</symbol><symbol id="ico-mono-social-youtube" viewBox="0 0 24 17">
    <path fill-rule="evenodd" d="M19.938 0H4.062C1.818 0 0 1.861 0 4.156v8.689C0 15.139 1.818 17 4.062 17h15.876C22.181 17 24 15.139 24 12.845V4.156C24 1.861 22.181 0 19.938 0zM16.7 8.666l-7.2 3.778a.181.181 0 0 1-.248-.081.181.181 0 0 1-.021-.085V4.722a.187.187 0 0 1 .186-.187.17.17 0 0 1 .083.021l7.2 3.778a.19.19 0 0 1 0 .336v-.004z"/>
</symbol></svg>