<svg xmlns="http://www.w3.org/2000/svg" xml:space="preserve" stroke-linecap="round"
     stroke-linejoin="round" stroke-miterlimit="10" clip-rule="evenodd"
     viewBox="-5 -5 1033.5 1033.5">
  <g fill="none" stroke="#1e2227" stroke-linecap="butt" stroke-width="10">
    <path d="M0 0v1023.5h1023.5V0H0Z"/>
	  <path
		  d="m467.5 178.5-1 111.5c-88.833 0-177.673 1.091-266.5 0-8.986-.11-17.703-4.257-19.582-14.173-1.918-10.121-3.746-21.024-.791-30.892 2.032-6.788 7.58-14.938 14.651-15.4 83.497-5.459 167.369.133 251.018-1.969 7.199-.181 14.843-9.48 12.361-16.798-2.097-6.183-6.208-14.512-12.727-14.891-85.136-4.952-170.574-2.327-255.839-.73-6.178.116-12.733 2.033-17.591 5.853-9.208 7.242-20.714 14.882-23.302 26.307-5.086 22.45-3.684 46.655 1.703 69.034 2.317 9.621 11.368 17.253 20.163 21.789 10.375 5.351 22.957 4.247 34.436 6.37.166 82.223.057 164.447-.324 246.669-26.199.184-52.531-2.093-78.597.553-5.957.605-11.329 4.751-15.542 9.006-9.656 9.754-10.4252 28.296-4.943 40.879 2.602 5.973 7.182 12.942 13.605 14.034 28.212 4.794 57.201 1.906 85.801 2.859V768c-9.769 1.088-20.229-.507-29.306 3.265-8.947 3.717-16.414 10.827-22.585 18.297-3.723 4.506-5.782 10.602-6.109 16.438-1.024 18.301-2.585 37.231 2.114 54.949 2.294 8.65 10.318 15.182 17.791 20.107 6.416 4.229 14.507 6.216 22.192 6.245 205.615.77 411.468 6.213 616.838-3.852 11.753-.576 19.005-16.133 22.177-27.464 4.772-17.05 2.401-35.524.379-53.113-.707-6.148-4.369-11.857-8.39-16.563-4.687-5.485-10.085-11.581-17.1-13.269-18.26-4.396-37.451-2.913-56.176-4.369-.163-65.086-.163-65.086-.325-130.171 23.171-.135 46.746-4.715 69.512-.404 7.278 1.378 7.75 14.831 14.988 16.404 20.268 4.406 41.619 2.764 62.223.379 5.487-.635 12.881-3.733 13.795-9.18 4.644-27.675 4.538-56.231 1.869-84.166-.512-5.368-6.139-9.574-11.038-11.825-5.629-2.587-12.334-1.166-18.501-1.75-1.466-9.818-4.455-23.655-.348-32.958 2.103-4.763 10.539-5.002 12-10 8.034-27.471 12.694-55.961 15.616-84.433 1.268-12.353 1.056-25.433-3.138-37.121-2.562-7.141-9.356-12.518-15.991-16.196-15.31-8.486-38.287-6.527-52.373 3.865-6.631 4.893-11.518 12.369-14.415 20.084-2.571 6.844-2.275 14.639-1.35 21.892 3.77 29.581 7.172 59.461 15.373 88.132 1.787 6.244 11.971 7.539 13.778 13.777 3.028 10.453-.221 21.765-.331 32.648-7.39 1.117-16.148-1.076-22.169 3.352-6.134 4.511-2.822 18.52-10.188 20.443-22.06 5.761-45.598.052-68.397.079-.458-123.511-.458-123.511-.915-247.022 15.185-.562 30.955 2.526 45.555-1.687 11.257-3.247 22.779-9.913 29.019-19.828 7.178-11.407 6.909-26.159 8.352-39.558 2.575-23.923-1.804-48.872-24.492-61.858-6.306-3.609-13.671-5.869-20.934-6.069-72.639-1.997-145.411-3.869-218-.5-7.395.343-12.667 7.667-19 11.5l-1-28c7.121-2.745 7.121-2.745 14.241-5.491-8.891-13.706-26.211-21.367-42.128-25.046-18.525-4.281-37.601-7.127-56.613-6.963-8.494.073-17.614 13.219-16.255 20.931 1.009 5.725 4.713 11.26 9.413 14.682 3.631 2.644 8.895 1.258 13.342 1.887Z"/>
	  <path
		  d="M380.5 322.5c-.223 124.941-.223 124.941-.446 249.881 126.811-.102 126.811-.102 253.622-.205V322.825h-88.848c-.135 18.755-.135 18.755-.269 37.51 6.137 1.225 17.473 1.11 19.156 10.46 2.514 13.968 1.789 28.356 1.626 42.548-.022 1.941-1.034 3.831-2.176 5.401-5.899 8.111-19.406 5.323-29.352 6.615-.438 4.713-1.913 9.445-1.313 14.141.947 7.416 17.169-.671 22.728 4.917 7.043 7.079 7.132 25.703-5.237 27.83-7.618 1.31-15.443.726-23.164 1.088-.185 19.539 1.732 39.212-.555 58.618-1.681 14.266-22.809 16.322-31.465 8.873-3.36-2.892-6.133-7.138-6.599-11.546-1.959-18.548-.355-37.299-.533-55.949-13.319-.602-31.544 3.891-33.529-14.269-.393-3.592-.217-7.492 1.331-10.758 8.974-18.938 40.705 4.014 53.023-8.304-6.167-5-10.933-12.599-18.5-15-9.322-2.957-19.767 1.825-29.34-.176-12.36-2.583-11.813-13.718-12.088-23.036-.27-9.176-1.179-18.526.59-27.534 2.255-11.479 10.503-11.606 19.338-14.754v-36l-88-1Zm0 347.5c-.573 32.997-1.764 66.007-1 99 84.333.333 168.666.989 253 1 .557 0 1.352-.411 1.361-.968.495-32.84.093-65.688.139-98.532-84.499-.365-169.022-2.42-253.5-.5ZM643 838.5c-2.646-2.59-6.48-4.366-7.937-7.77-7.434-17.366 34.581-15.039 12.937 7.27 9.164 3.373 4.19 2.845 15 .5-1.686-3.128-5.324-5.841-5.059-9.385.312-4.148 2.419-10.215 6.559-10.615 35.797-3.459 72.002-2.755 107.892-.445 5.33.343 8.503 7.137 13.722 8.271 4.452.968 13.238-3.059 11.463-9.392-1.605-5.725-9.089-14.87-16.077-14.934-195.658-1.798-391.334-.828-587-.5-24.073.04-23.918 53.265 1 53.5 69.33.654 138.727 3.39 208 .5 4.408-.184 5.47-7.131 9.154-9.559 3.83-2.525 8.259-4.842 12.846-4.941 69.328-1.502 138.693.954 208.033.157 3.277-.038 6.311-1.771 9.467-2.657ZM260 339c-8.167.167-16.356-.126-24.5.5-.705.054-1.498.793-1.5 1.5-.332 143 .333 286 .5 429 8.456.022 16.925.525 25.369.065.88-.048 2.127-.684 2.131-1.565.708-142.498 0-285-2-429.5Zm39.5 237.5c-11.221 5.656-7.701 25.079-5.038 37.359 1.18 5.442 14.944 10.104 19.038 10.141 124.19 1.128 248.392 1.34 372.584.467 7.453-.052 27.228-3.884 28.456-15.555.879-8.353-.425-16.803-1.138-25.171-1.166-13.679-25.453-7.519-30.902-7.241-13.865.707-.911 26.449-9.851 26.628-85.277 1.715-170.584 1.34-255.877 1.268-27.847-.024-55.739.274-83.525-1.556-4.002-.263.578-23.718-5.747-25.34-9.047-2.319-19.66-5.204-28-1Zm-12.5-24 32.5 1c0-67.559 1.09-135.126.08-202.678-.147-9.841-26.373-11.226-31.08-11.322-.707-.014-1.495.793-1.5 1.5-.496 70.498 0 141 0 211.5Z"/>
	  <path
		  d="M295 612c-1.157 18.069-3.869 27.963 1.235 27.977 137.588.38 275.182 1.171 412.765.023 7.63-.064 3.461-16.43 3-27.5-1.298 1.207-9.434 10.466-14 10.5-127.996.963-256.002 1.281-384 .5-9.538-.058-12.615-5.519-19-11.5Zm502 210.5c-4.5.667-9.94-.832-13.5 2-3.252 2.587-1.462 8.475-3.899 11.841-1.391 1.921-4.23 2.592-6.601 2.659-34.986.99-70.001.817-105 .5-6.556-.059-14.165-2.058-20.5-2-73.833.672-147.676.671-221.5 2-8.837.159-17.549 9.926-23 14.5.667.5 1.167 1.497 2 1.5 124.674.452 249.354.858 374.024-.136 16.903-.135 18.296-21.126 17.976-32.864ZM486.673 474.335c.109 16.055-.161 32.117.327 48.165.237 7.809 1.117 11.582 5.911 17.606 7.838 9.849 33.17 8.088 33.789-7.434.775-19.435.752-38.893 1.128-58.34 2.861-.047 18.221 1.871 24.576-1.915 8.268-4.926 13.462-20.988 4.104-27.393-4.779-3.271-9.764-3.925-15.662-4.262-11.1-.636-22.228-.787-33.346-.762-14.656.033-29.344-.167-43.958.936-10.264.775-14.26 18.955-8.239 25.594 10.386 11.454 15.138 8.204 31.37 7.805ZM286.714 340.911c7.554-2.005 31.113-4.717 31.389 8.272.724 34.086 1.025 68.18 1.125 102.273.099 33.36-.943 66.721-.527 100.078.011.888.912 1.914 1.799 1.966 10.649.619 21.344.477 32 0 .706-.032 1.468-.794 1.5-1.5.367-8.215-.22-16.444-.331-24.666-6.479-.376-13.175.577-19.437-1.127-6.483-1.763-11.153-18.66-2.256-20.068 7.134-1.129 14.553-.178 21.593-1.788.215-12.175.215-12.175.431-24.351-6.382-.619-12.931-.275-19.145-1.858-8.91-2.269-9.784-16.914-1.867-20.682 4.701-2.237 18.194-1.726 20.681-1.798.165-11.581.165-11.581.331-23.162-6.724-.42-14.51 1.761-20.114-1.979-6.786-4.528-10.23-19.447.857-21.215 6.241-.995 12.617-.763 18.926-1.144.166-12.331.166-12.331.331-24.662-6.352-.623-12.893-.208-19.055-1.869-9.029-2.433-10.364-19.346-.564-21.465 6.267-1.355 12.741-1.454 19.111-2.181.128-6.15 1.196-12.353.384-18.451-.632-4.748-16.888 1.47-21.938-2.285-4.16-3.094-1.08-15.023-5.914-15.39-12.639-.958-25.478-1.663-38.024.141-4.035.58-2.032 10.401-1.286 18.911ZM627 271.5c3.143 4.19 10.477.048 15.713-.102 9.238-.264 18.473.602 27.71.903-.641-6.101-2.071-12.169-1.923-18.301.117-4.845 5.498-11.372 9.031-13.612C697.779 227.555 720.772 252.08 707 271c.5.5.793 1.48 1.5 1.5 13.2.381 26.411-.21 39.617-.315-4.078-15.461-3.658-29.709 14.338-35.028 5.936-1.754 10.416-.785 15.596 2.408 6.982 4.303 8.837 20.41 19.518 13.025 5.714-3.951-9.668-24.657-18.864-24.734-68.066-.571-136.137-.237-204.205-.356l-1 44c41.544 5.623-6.752-22.025 29.105-33.531C623.39 231.3 638.717 254.378 627 271.5Z"/>
	  <path
		  d="M671 270c-.5.5-.793 1.472-1.5 1.5-13.475.538-27.083-1.559-40.457.176-7.103.922-12.807 8.13-19.967 7.943-14.63-.382-8.92-5.865-17.576-9.119-4.937-1.856-10.55.228-15.815.547-.873.053-2.082.584-2.185 1.453-.666 5.627 0 11.333 0 17 68.284 2.73 136.696 1.897 205.016.305 21.116-.493 19.295-23.599 19.263-38.019-19.918-2.57-2.368 18.498-22.689 26.789-13.303 5.427-18.468-7.417-26.59-8.075-13.623-1.104-27.461-1.369-41 .5-3.639.502-5.637 4.858-8.972 6.398-11.691 5.398-18.947-.128-27.528-7.398Zm-15 557.5c-2.119-2.334-2.425-6.942-5.381-8.115-27.731-11.006-15.457 40.424 5.381 10.115 2.39 3.587 4.619 10.321 10.353 10.443 35.966.762 71.948.62 107.921.416 10.836-.061 11.981-17.905 3.009-21.767-1.116-.48-2.306-.91-3.52-.942-19.249-.5-38.507-.624-57.763-.65-17.167-.024-34.339.019-51.5.5-3.433.096-7.755 8.859-8.5 10ZM287.5 672c-.757.818-2.265 1.339-2.27 2.453-.163 31.521 1.18 63.031 1.77 94.547 15.852.398 15.852.398 31.705.795.182-19.95 1.88-39.945.546-59.851-.229-3.41-2.958-6.244-5.152-8.866-8.43-10.074-17.733-19.385-26.599-29.078Zm218-486.5L496 188c3.614 87.021 3.614 87.021 7.227 174.043 1.137-88.272 1.137-88.272 2.273-176.543Z"/>
	  <path
		  d="M609.5 235c-29.468 1.598-30.507 42.187 0 46 14.781 1.848 23-13.646 23-26 0-11.799-13.417-20.52-23-20Zm155.5 0c-30.436 4.791-25.267 49.252 4 46 24.312-2.701 24.992-27.008 10.5-41.5-3.269-3.269-10.523-5.126-14.5-4.5Zm-76.5 0c-28.214 2.549-28.832 41.195 0 46 13.733 2.289 24-12.406 24-24.5 0-12.849-13.344-22.463-24-21.5Zm-383 0c-30.689 4.175-27.372 46 4 46 13.947 0 23.247-18.131 18.5-30-4.208-10.519-12.202-17.401-22.5-16Zm-80.5 0c-28.671 2.369-29.406 43.009.5 46 15.143 1.514 26.885-16.536 21.5-30-4.161-10.402-11.775-16.845-22-16Zm161.5 0c-27.592 1.011-28.851 41.358-1 46 14.559 2.426 26.424-14.341 23.5-27.5-2.551-11.48-12.069-18.882-22.5-18.5ZM497 188c3.047-.873 11.946-3.826 12 2.5.483 56.332.17 112.667.5 169 .003.527.333 1 .5 1.5 5.852-.002 7.509.8 7.5-6-.077-59.223-.55-118.445-.825-177.668-13.561-.759-6.782-.739-20.337-.062-1.254 4.573-1.468 6.528.662 10.73Zm344.495 420.504c12.49.57 25.019.57 37.509 0 .569-11.989.569-24.019 0-36.008-8.058-.54-16.099-1.511-24.175-1.621-4.126-.056-8.315.167-12.329 1.125-4.252 1.015-1.019 9.381-1 10 .272 8.831-.003 17.669-.005 26.504ZM322.5 709.5c-.651 1.971-3.038 3.309-3.133 5.383-.812 17.688-.296 35.411-.367 53.117-.024 6.12 13.512 2.488 16 0-1.886-1.449-3.968-2.673-5.659-4.346-4.302-4.258-1.685-13.628 3.479-15.954 4.612-2.078 19.616 3.531 20.979-1.777.397-1.546.699-20.647.201-22.423-1.537-5.477-11.317-1.243-17-1.5-5.723-.259-7.725-7.989-10.5-11.5l-2 1.5-2-2.5Z"/>
	  <path
		  d="M296.5 685c7.141 7.129 14.201 13.662 20.5 21.5 2.207 2.746 1.635 6.481 3.5 9.5 3.841-4.609 6.676-11.526 11.392-15.294 14.882-11.893 24.181 14.621 21.773-16.879-10.306-.212-20.609-.575-30.917-.635-8.77-.052-20.047-4.393-26.248 1.808Zm363.5-1.5c-2.11 4.449-5.699 15.835 2.162 15.988 19.135.375 38.275-.528 57.412-.793-6.475-10.896-25.073-11.178-59.574-15.195Zm.5-155.5c-4.123 4.123-1.387 20.56-1.169 25.172 7.441.236 27.288 1.205 35.669.328 3.977-.416 1.72-21.904 1.5-24-.058-.552-.421-1.298-.974-1.352-5.899-.585-11.851-.338-35.026-.148Zm35-70c.631-7.942 1.273-15.937.776-23.889-11.843-1.499-23.842-1.878-35.776-1.611-2.236.05-3.366 24.841 0 25.5 11.281 2.208 24.32-3.758 35 0Zm-36.169 22.828c-.236 4.988-1.188 18.024-.331 23.672.313 2.06 28.437 3.019 36 1 3.425-.914 1.238-23.252 1.169-24.672-12.273-.38-24.565-.38-36.838 0Zm0-71.156c12.319.385 24.656.499 36.976.13 1.534-5.099.698-10.64.571-15.963-.07-2.931 1.563-8.402-1.354-8.691-5.898-.585-11.847-.482-17.774-.507-6.281-.027-17.79-4.348-18.75 1.859-.856 5.534.096 18.286.331 23.172Zm0 313.156c-.078 1.621-2.009 24.523 1.169 24.672 10.156.476 20.333.041 30.5 0 2.849-.011 2.366-.095 5.218-.924.297-6.506 1.043-15.838.282-22.576-.062-.552-.421-1.295-.974-1.353-5.397-.564-10.847-.478-16.273-.451-6.644.033-13.282.422-19.922.632ZM664 338.5c-10.317.64-5.021 16.618-4.669 23.672 7.442.236 27.288 1.205 35.669.328 3.176-.332 2.873-23.253.522-23.804-3.691-.867-7.573-.395-31.522-.196Zm178 269c-4.469 2.711-2.659 17.598-.024 17.853 5.867.566 29.976.731 36.024.147 3.982-.385 1.226-16.791 1.166-17.672-11.385-.912-20.763-1.885-37.166-.328Z"/>
	  <path
		  d="M695.206 528.589c-.149 7.591-1.563 17.84.794 24.911 7.724.075 15.457.096 23.169-.331.377-7.978.517-15.981.18-23.961-7.968-1.147-16.092-.612-24.143-.619Zm.001-143c-.173 8.032-1.277 16.701 1.293 24.411 7.722.075 15.454.096 23.165-.331 1.674-21.045-3.688-23.584-24.458-24.08ZM694.5 433.5c4.906 7.671-.281 15.632 1.5 24 7.724.075 15.457.096 23.169-.331.38-8.104.38-16.234 0-24.338-8.217-.385-16.483-.143-24.669.669Zm1.5 314c7.724.075 15.457.096 23.169-.331.373-7.947.455-15.914.209-23.865-8.11-.983-12.697-1.643-22.878-1.304-3.536.118-1.627 6.963-1.549 10.499.111 5.012-.536 10.246 1.049 15.001Zm-.289-266.411c-.308 7.364-1.996 17.556.289 24.411 7.724.075 15.457.096 23.169-.331.373-7.946.455-15.913.209-23.864-7.85-.79-15.778-.29-23.667-.216ZM695 339.5c4.696 7.435-.677 14.919 1 23 24.704.35 28.429 1.9 23-23.307-7.966-.746-16.037-.468-24 .307ZM490 426c19.511 17.393 17.239 16.068 43.5 15.5-.672-5.69.567-10.899 0-16.5l-43.5 1Zm-255.667-85.327c10.276.653 17.802 1.914 27.33-.031.216-3.356 1.151-13.594.337-17.142-.405-1.767-27.279-3.145-28 0-.811 3.536.121 13.839.333 17.173ZM483 377c-12.732 4.346-7.446 35.899 5.443 30.121 10.003-4.485 7.358-34.491-5.443-30.121Zm44.5 0c-11.33 3.522-7.962 36.539 5.74 29.777 9.765-4.819 8.23-34.12-5.74-29.777Zm-320 440.5c-14.635 4.717-9.04 22.5 5.5 22.5 6.549 0 9.956-10.109 8-15-2.573-6.432-7.849-9.321-13.5-7.5ZM185 587c-11.326 3.083-8.941 37.139 2.99 32.529 7.58-2.929 9.906-36.039-2.99-32.529Zm615 0c-11.083 1.984-10.805 24.032 4.967 19.998 8.868-2.268 1.094-21.083-4.967-19.998Zm-670.5 0c-10.626 2.965-8.485 24.942 4.863 20.692 7.274-2.316 4.838-23.399-4.863-20.692Zm28 0c-11.109 2.314-9.452 25.762 6.166 19.816 7.125-2.712 1.991-21.515-6.166-19.816Zm613.5.5c-10.449 3.536-6.945 24.466 7.708 19.33 4.108-1.44 4.029-23.302-7.708-19.33Z"/>
	  <path
		  d="M794 607c0 6.648 3.155 18.845 12 10 2.892-2.892-.081-7.838 1.5-11-2.634-2.634-9.842-.219-13.5 1Zm-669.79-1.467c-3.93 18.648 15.004 16.034 12.954.32-4.415-.669-8.504.436-12.954-.32ZM164 605c-3.712 2.535-7.749.869-12 1.5 0 20.071 16.119 15.693 12-1.5Zm604 .5c-9.566 10.21 15.066 26.641 11.158.34-7.75-1.074-4.687-1.114-11.158-.34Z"/>
  </g>
</svg>
