<?xml version="1.0" encoding="UTF-8" standalone="no"?>
<!DOCTYPE svg PUBLIC "-//W3C//DTD SVG 1.1//EN" "http://www.w3.org/Graphics/SVG/1.1/DTD/svg11.dtd">
<!-- Created with Vectornator (http://vectornator.io/) -->
<svg xmlns:xlink="http://www.w3.org/1999/xlink" height="100%"
     stroke-miterlimit="10"
     style="fill-rule:nonzero;clip-rule:evenodd;stroke-linecap:round;stroke-linejoin:round;"
     version="1.1" viewBox="0 0 1024 1024" width="100%" xml:space="preserve"
     xmlns="http://www.w3.org/2000/svg">
<defs>
<path
	d="M502.5 194.162C500.167 195.162 498.167 196.829 496.5 199.162C494.833 201.495 494 215.995 494 242.662C494 255.995 494 269.329 494 282.662C492.667 282.662 491.333 282.662 490 282.662C488.667 282.662 487.333 282.662 486 282.662C486 270.829 486 258.995 486 247.162C486 235.329 486 223.495 486 211.662C485.167 211.662 484.333 211.662 483.5 211.662C481.833 211.662 477.333 213.495 470 217.162C462.667 220.829 455.333 226.162 448 233.162C440.667 240.162 434.667 247.829 430 256.162C425.333 264.495 422.5 270.995 421.5 275.662C420.5 280.329 418.167 282.829 414.5 283.162C410.833 283.495 408.333 284.162 407 285.162C405.667 286.162 405 290.162 405 297.162C405 304.162 405.5 307.995 406.5 308.662C407.5 309.329 442.333 309.495 511 309.162C579.667 308.829 614.5 307.995 615.5 306.662C616.5 305.329 617 302.329 617 297.662C617 292.995 616.333 289.662 615 287.662C613.667 285.662 611 284.329 607 283.662C603 282.995 600 279.495 598 273.162C596 266.829 593.167 260.495 589.5 254.162C585.833 247.829 580.833 241.495 574.5 235.162C568.167 228.829 560.333 223.329 551 218.662C541.667 213.995 536.667 211.662 536 211.662C535.667 211.662 535.333 211.662 535 211.662C535.167 223.495 535.333 235.329 535.5 247.162C535.667 258.995 535.833 270.829 536 282.662C534.5 282.662 533 282.662 531.5 282.662C530 282.662 528.5 282.662 527 282.662C527.167 269.829 527.333 256.995 527.5 244.162C527.833 218.495 527.667 204.662 527 202.662C526.333 200.662 525.167 198.829 523.5 197.162C521.833 195.495 518.5 194.329 513.5 193.662C508.5 192.995 504.833 193.162 502.5 194.162Z"
	id="Fill"/>
	<path
		d="M431 338.662C431.667 348.662 433.667 359.995 437 372.662C440.333 385.329 444 395.662 448 403.662C452 411.662 457 419.162 463 426.162C469 433.162 476 438.662 484 442.662C492 446.662 500.167 448.829 508.5 449.162C516.833 449.495 524.833 448.162 532.5 445.162C540.167 442.162 546.167 438.829 550.5 435.162C554.833 431.495 559.5 425.829 564.5 418.162C569.5 410.495 573.667 402.329 577 393.662C580.333 384.995 583.167 375.495 585.5 365.162C587.833 354.829 589.333 345.329 590 336.662C590.333 332.329 590.667 327.995 591 323.662C564.167 323.662 537.333 323.662 510.5 323.662C483.667 323.662 456.833 323.662 430 323.662C430.333 328.662 430.667 333.662 431 338.662Z"
		id="Fill_2"/>
	<path
		d="M563 455.162C560.333 459.495 557.333 463.162 554 466.162C550.667 469.162 547.333 471.662 544 473.662C540.667 475.662 536.167 477.495 530.5 479.162C524.833 480.829 518.167 481.662 510.5 481.662C502.833 481.662 496.167 480.829 490.5 479.162C484.833 477.495 479.833 475.329 475.5 472.662C471.167 469.995 466.5 465.495 461.5 459.162C456.5 452.829 453.167 449.662 451.5 449.662C450.667 449.662 449.833 449.662 449 449.662C449 471.995 449 494.329 449 516.662C449 538.995 449 561.329 449 583.662C469.5 583.662 490 583.662 510.5 583.662C531 583.662 551.5 583.662 572 583.662C572.167 561.329 572.333 538.995 572.5 516.662C572.833 471.995 572 449.495 570 449.162C568 448.829 565.667 450.829 563 455.162Z"
		id="Fill_3"/>
	<path
		d="M398.5 462.662C387.5 465.329 379.667 467.662 375 469.662C370.333 471.662 365.5 474.829 360.5 479.162C355.5 483.495 351.333 488.829 348 495.162C344.667 501.495 340.333 529.829 335 580.162C329.667 630.495 327 659.495 327 667.162C327 674.829 328.833 682.329 332.5 689.662C336.167 696.995 341.333 702.495 348 706.162C354.667 709.829 361.667 711.662 369 711.662C376.333 711.662 387 709.662 401 705.662C408 703.662 415 701.662 422 699.662C420.667 697.329 419.333 694.995 418 692.662C415.333 687.995 413.333 682.829 412 677.162C410.667 671.495 410.167 665.495 410.5 659.162C410.833 652.829 412.5 646.162 415.5 639.162C418.5 632.162 420 628.162 420 627.162C420 626.662 420 626.162 420 625.662C419.833 625.995 419.667 626.329 419.5 626.662C419.333 626.995 419.167 627.329 419 627.662C418.667 627.495 418.333 627.329 418 627.162C417.333 626.829 417 598.829 417 543.162C417 487.495 416.667 459.495 416 459.162C415.333 458.829 409.5 459.995 398.5 462.662Z"
		id="Fill_4"/>
	<path
		d="M605 584.162C605 667.829 605.667 709.829 607 710.162C607.667 710.329 608.333 710.495 609 710.662C609 701.162 609 691.662 609 682.162C609 663.162 609.5 652.662 610.5 650.662C611.5 648.662 614.167 645.829 618.5 642.162C622.833 638.495 626.667 636.162 630 635.162C633.333 634.162 644.333 633.662 663 633.662C672.333 633.662 681.667 633.662 691 633.662C691 632.162 691 630.662 691 629.162C691 626.162 689.167 606.329 685.5 569.662C681.833 532.995 679.5 512.495 678.5 508.162C677.5 503.829 676 499.662 674 495.662C672 491.662 668.833 487.329 664.5 482.662C660.167 477.995 655.833 474.495 651.5 472.162C647.167 469.829 638.333 466.995 625 463.662C618.333 461.995 611.667 460.329 605 458.662C605 500.495 605 542.329 605 584.162Z"
		id="Fill_5"/>
	<path
		d="M456.5 606.162C446.167 611.829 439 616.662 435 620.662C431 624.662 427.333 630.495 424 638.162C420.667 645.829 419 653.829 419 662.162C419 670.495 419.833 676.829 421.5 681.162C423.167 685.495 425.333 689.662 428 693.662C430.667 697.662 437.833 698.995 449.5 697.662C461.167 696.329 470 699.495 476 707.162C482 714.829 486.333 718.662 489 718.662C491.667 718.662 494.167 717.495 496.5 715.162C498.833 712.829 500.167 710.662 500.5 708.662C500.667 707.662 500.833 706.662 501 705.662C501.333 705.995 501.667 706.329 502 706.662C502.667 707.329 504.167 707.662 506.5 707.662C508.833 707.662 511 706.829 513 705.162C515 703.495 516.333 701.829 517 700.162C517.667 698.495 519.5 697.495 522.5 697.162C525.5 696.829 528 695.495 530 693.162C532 690.829 533 687.829 533 684.162C533 680.495 531.167 675.995 527.5 670.662C525.667 667.995 523.833 665.329 522 662.662C525.5 666.162 529 669.662 532.5 673.162C539.5 680.162 544.333 683.495 547 683.162C549.667 682.829 551.667 682.162 553 681.162C554.333 680.162 555.5 678.829 556.5 677.162C557.5 675.495 558 673.329 558 670.662C558 667.995 552 659.995 540 646.662C528 633.329 519.667 626.329 515 625.662C510.333 624.995 504.5 625.329 497.5 626.662C494 627.329 490.5 627.995 487 628.662C488 627.495 489 626.329 490 625.162C492 622.829 490.333 617.995 485 610.662C479.667 603.329 476.167 599.329 474.5 598.662C472.833 597.995 466.833 600.495 456.5 606.162Z"
		id="Fill_6"/>
	<path
		d="M558.5 640.662C556.833 641.995 556 644.662 556 648.662C556 652.662 557.667 656.662 561 660.662C564.333 664.662 566 668.162 566 671.162C566 674.162 564.5 677.162 561.5 680.162C558.5 683.162 557 687.162 557 692.162C557 694.662 557 697.162 557 699.662C554.833 699.662 552.667 699.662 550.5 699.662C548.333 699.662 546.167 699.662 544 699.662C544 703.995 544 708.329 544 712.662C544 721.329 551.667 725.829 567 726.162C574.667 726.329 582.333 726.495 590 726.662C590.167 722.162 590.333 717.662 590.5 713.162C590.833 704.162 588.833 699.495 584.5 699.162C580.167 698.829 578 688.995 578 669.662C578 650.329 577.5 640.329 576.5 639.662C575.5 638.995 572.667 638.662 568 638.662C563.333 638.662 560.167 639.329 558.5 640.662Z"
		id="Fill_7"/>
	<path
		d="M635.5 650.162C633.167 651.162 630.833 653.162 628.5 656.162C626.167 659.162 625 678.662 625 714.662C625 732.662 625 750.662 625 768.662C563.5 768.662 502 768.662 440.5 768.662C379 768.662 317.5 768.662 256 768.662C256 772.995 256 777.329 256 781.662C256 785.995 256 790.329 256 794.662C317.5 794.662 379 794.662 440.5 794.662C502 794.662 563.5 794.662 625 794.662C625 798.162 625 801.662 625 805.162C625 812.162 624.333 816.995 623 819.662C621.667 822.329 620 824.495 618 826.162C616 827.829 612.333 828.995 607 829.662C601.667 830.329 597.833 830.162 595.5 829.162C593.167 828.162 590.5 825.995 587.5 822.662C584.5 819.329 582.667 816.495 582 814.162C581.333 811.829 573.167 810.662 557.5 810.662C541.833 810.662 533.333 812.495 532 816.162C530.667 819.829 529 822.662 527 824.662C525 826.662 522.833 828.162 520.5 829.162C518.167 830.162 515 830.662 511 830.662C507 830.662 503.667 829.995 501 828.662C498.333 827.329 496.167 825.829 494.5 824.162C492.833 822.495 491.333 819.829 490 816.162C488.667 812.495 480 810.662 464 810.662C448 810.662 439.5 812.329 438.5 815.662C437.5 818.995 435.833 821.829 433.5 824.162C431.167 826.495 428.833 828.162 426.5 829.162C424.167 830.162 421.167 830.662 417.5 830.662C413.833 830.662 410.667 830.162 408 829.162C405.333 828.162 402.667 826.162 400 823.162C397.333 820.162 395.667 817.329 395 814.662C394.333 811.995 385.833 810.662 369.5 810.662C361.333 810.662 353.167 810.662 345 810.662C345 811.329 345 811.995 345 812.662C345 813.995 343.667 816.662 341 820.662C338.333 824.662 335.5 827.329 332.5 828.662C329.5 829.995 326 830.662 322 830.662C318 830.662 313.667 828.995 309 825.662C304.333 822.329 301.5 818.995 300.5 815.662C299.5 812.329 291 810.662 275 810.662C259 810.662 250.5 812.162 249.5 815.162C248.5 818.162 247.167 820.662 245.5 822.662C243.833 824.662 241.333 826.495 238 828.162C234.667 829.829 231.167 830.662 227.5 830.662C223.833 830.662 220.833 830.162 218.5 829.162C216.167 828.162 213.833 826.495 211.5 824.162C209.167 821.829 207.5 819.662 206.5 817.662C205.5 815.662 204.833 812.662 204.5 808.662C204.167 804.662 204.667 800.995 206 797.662C207.333 794.329 209.667 791.329 213 788.662C216.333 785.995 220.667 784.495 226 784.162C231.333 783.829 234.833 783.995 236.5 784.662C237.333 784.995 238.167 785.329 239 785.662C239 777.495 239 769.329 239 761.162C239 752.995 239 744.829 239 736.662C230.167 736.662 221.333 736.662 212.5 736.662C194.833 736.662 185 736.995 183 737.662C181 738.329 179 740.329 177 743.662C175 746.995 174 773.995 174 824.662C174 875.329 174.333 901.662 175 903.662C175.667 905.662 176.833 907.495 178.5 909.162C180.167 910.829 182 911.995 184 912.662C186 913.329 295.333 913.662 512 913.662C728.667 913.662 838.333 913.162 841 912.162C843.667 911.162 845.833 909.495 847.5 907.162C849.167 904.829 850 877.495 850 825.162C850 772.829 849.667 745.995 849 744.662C848.333 743.329 846.333 741.662 843 739.662C839.667 737.662 829.5 736.662 812.5 736.662C804 736.662 795.5 736.662 787 736.662C787 744.829 787 752.995 787 761.162C787 769.329 787 777.495 787 785.662C787.5 785.329 788 784.995 788.5 784.662C789.5 783.995 792 783.662 796 783.662C800 783.662 803.167 784.162 805.5 785.162C807.833 786.162 810.333 788.162 813 791.162C815.667 794.162 817.333 796.829 818 799.162C818.667 801.495 818.667 804.995 818 809.662C817.333 814.329 815.667 818.329 813 821.662C810.333 824.995 807.5 827.329 804.5 828.662C801.5 829.995 797.833 830.495 793.5 830.162C789.167 829.829 785.333 828.495 782 826.162C778.667 823.829 776 820.329 774 815.662C772 810.995 771 784.495 771 736.162C771 687.829 770.5 662.662 769.5 660.662C768.5 658.662 767 656.662 765 654.662C763 652.662 760.667 651.162 758 650.162C755.333 649.162 734.833 648.662 696.5 648.662C658.167 648.662 637.833 649.162 635.5 650.162Z"
		id="Fill_8"/>
	<path
		d="M697.5 661.662C703.167 661.662 706.5 665.162 707.5 672.162C708.5 679.162 711.333 683.495 716 685.162C720.667 686.829 725.5 686.662 730.5 684.662C735.5 682.662 739.333 683.995 742 688.662C744.667 693.329 743.333 697.495 738 701.162C732.667 704.829 730 708.829 730 713.162C730 717.495 732.5 721.662 737.5 725.662C742.5 729.662 744.167 733.329 742.5 736.662C740.833 739.995 739.333 742.329 738 743.662C736.667 744.995 733.833 744.329 729.5 741.662C725.167 738.995 722.333 737.662 721 737.662C719.667 737.662 718.167 738.329 716.5 739.662C714.833 740.995 713 741.829 711 742.162C709 742.495 707.833 745.995 707.5 752.662C707.167 759.329 704 762.662 698 762.662C692 762.662 688.833 759.495 688.5 753.162C688.167 746.829 685.5 742.662 680.5 740.662C675.5 738.662 670.5 738.995 665.5 741.662C660.5 744.329 656.667 743.495 654 739.162C651.333 734.829 652.667 730.495 658 726.162C663.333 721.829 666 717.495 666 713.162C666 708.829 663.333 704.995 658 701.662C652.667 698.329 650.5 695.329 651.5 692.662C652.5 689.995 654 687.329 656 684.662C658 681.995 661 681.829 665 684.162C669 686.495 671.833 687.662 673.5 687.662C675.167 687.662 677.833 686.662 681.5 684.662C685.167 682.662 687.333 678.329 688 671.662C688.667 664.995 691.833 661.662 697.5 661.662Z"
		id="Fill_9"/>
	<path
		d="M688 689.662C684.667 690.995 682.167 692.495 680.5 694.162C678.833 695.829 677.333 697.995 676 700.662C674.667 703.329 673.833 706.495 673.5 710.162C673.167 713.829 673.5 717.162 674.5 720.162C675.5 723.162 677.167 725.995 679.5 728.662C681.833 731.329 684.333 733.329 687 734.662C689.667 735.995 693 736.662 697 736.662C701 736.662 704.5 735.995 707.5 734.662C710.5 733.329 713.167 731.495 715.5 729.162C717.833 726.829 719.5 724.495 720.5 722.162C721.5 719.829 722 716.662 722 712.662C722 708.662 721.333 705.162 720 702.162C718.667 699.162 717 696.662 715 694.662C713 692.662 710.333 690.995 707 689.662C703.667 688.329 700.5 687.662 697.5 687.662C694.5 687.662 691.333 688.329 688 689.662Z"
		id="Fill_10"/>
	<path
		d="M275 741.162C275 742.662 275 744.162 275 745.662C271.667 745.662 268.333 745.662 265 745.662C261.667 745.662 258.333 745.662 255 745.662C255 746.829 255 747.995 255 749.162C255 750.329 255 751.495 255 752.662C271.5 752.829 288 752.995 304.5 753.162C321 753.329 337.5 753.495 354 753.662C354 750.829 354 747.995 354 745.162C354 742.329 354 739.495 354 736.662C340.833 736.662 327.667 736.662 314.5 736.662C301.333 736.662 288.167 736.662 275 736.662C275 738.162 275 739.662 275 741.162Z"
		id="Fill_11"/>
	<path
		d="M374 745.162C374 747.995 374 750.829 374 753.662C387.167 753.662 400.333 753.662 413.5 753.662C426.667 753.662 439.833 753.662 453 753.662C452.833 750.829 452.667 747.995 452.5 745.162C452.167 739.495 439 736.662 413 736.662C400 736.662 387 736.662 374 736.662C374 739.495 374 742.329 374 745.162Z"
		id="Fill_12"/>
	<path
		d="M475 745.162C475 747.995 475 750.829 475 753.662C488.333 753.662 501.667 753.662 515 753.662C528.333 753.662 541.667 753.662 555 753.662C555 750.829 555 747.995 555 745.162C555 742.329 555 739.495 555 736.662C541.667 736.662 528.333 736.662 515 736.662C501.667 736.662 488.333 736.662 475 736.662C475 739.495 475 742.329 475 745.162Z"
		id="Fill_13"/>
	<path
		d="M576 745.162C576 747.995 576 750.829 576 753.662C581.5 753.662 587 753.662 592.5 753.662C598 753.662 603.5 753.662 609 753.662C609 750.829 609 747.995 609 745.162C609 742.329 609 739.495 609 736.662C603.5 736.662 598 736.662 592.5 736.662C587 736.662 581.5 736.662 576 736.662C576 739.495 576 742.329 576 745.162Z"
		id="Fill_14"/>
	<path
		d="M703 776.662C709 777.329 713.167 778.495 715.5 780.162C717.833 781.829 720 784.829 722 789.162C724 793.495 724.5 798.662 723.5 804.662C722.5 810.662 721 814.829 719 817.162C717 819.495 714.333 821.495 711 823.162C707.667 824.829 704.333 825.662 701 825.662C697.667 825.662 694.333 824.995 691 823.662C687.667 822.329 685 820.662 683 818.662C681 816.662 679.333 814.162 678 811.162C676.667 808.162 675.833 804.995 675.5 801.662C675.167 798.329 675.667 794.829 677 791.162C678.333 787.495 680 784.662 682 782.662C684 780.662 686.5 778.995 689.5 777.662C692.5 776.329 697 775.995 703 776.662Z"
		id="Fill_15"/>
	<path
		d="M690 789.662C686.667 792.995 685 796.495 685 800.162C685 803.829 686.167 807.162 688.5 810.162C690.833 813.162 693.833 814.995 697.5 815.662C701.167 816.329 704.833 815.495 708.5 813.162C712.167 810.829 714.333 807.495 715 803.162C715.667 798.829 715.5 795.495 714.5 793.162C713.5 790.829 712.167 788.995 710.5 787.662C708.833 786.329 705.833 785.495 701.5 785.162C697.167 784.829 693.333 786.329 690 789.662Z"
		id="Fill_16"/>
</defs>
	<g id="Layer-1">
<g opacity="1">
<mask height="156.067" id="StrokeMask" maskUnits="userSpaceOnUse" width="252" x="385" y="173.262">
<rect fill="#ffffff" height="156.067" stroke="none" width="252" x="385" y="173.262"/>
	<use fill="#000000" fill-rule="evenodd" stroke="none" xlink:href="#Fill"/>
</mask>
	<use fill="none" mask="url(#StrokeMask)" stroke="#ffffff" stroke-linecap="round"
	     stroke-linejoin="round"
	     stroke-width="40" xlink:href="#Fill"/>
</g>
		<g opacity="1">
<mask height="165.55" id="StrokeMask_2" maskUnits="userSpaceOnUse" width="201" x="410" y="303.662">
<rect fill="#ffffff" height="165.55" stroke="none" width="201" x="410" y="303.662"/>
	<use fill="#000000" fill-rule="evenodd" stroke="none" xlink:href="#Fill_2"/>
</mask>
			<use fill="none" mask="url(#StrokeMask_2)" stroke="#ffffff" stroke-linecap="round"
			     stroke-linejoin="round"
			     stroke-width="40" xlink:href="#Fill_2"/>
</g>
		<g opacity="1">
<mask height="174.536" id="StrokeMask_3" maskUnits="userSpaceOnUse" width="163.571" x="429"
      y="429.126">
<rect fill="#ffffff" height="174.536" stroke="none" width="163.571" x="429" y="429.126"/>
	<use fill="#000000" fill-rule="evenodd" stroke="none" xlink:href="#Fill_3"/>
</mask>
			<use fill="none" mask="url(#StrokeMask_3)" stroke="#ffffff" stroke-linecap="round"
			     stroke-linejoin="round"
			     stroke-width="40" xlink:href="#Fill_3"/>
</g>
		<g opacity="1">
<mask height="292.556" id="StrokeMask_4" maskUnits="userSpaceOnUse" width="135" x="307" y="439.106">
<rect fill="#ffffff" height="292.556" stroke="none" width="135" x="307" y="439.106"/>
	<use fill="#000000" fill-rule="evenodd" stroke="none" xlink:href="#Fill_4"/>
</mask>
			<use fill="none" mask="url(#StrokeMask_4)" stroke="#ffffff" stroke-linecap="round"
			     stroke-linejoin="round"
			     stroke-width="40" xlink:href="#Fill_4"/>
</g>
		<g opacity="1">
<mask height="292" id="StrokeMask_5" maskUnits="userSpaceOnUse" width="126" x="585" y="438.662">
<rect fill="#ffffff" height="292" stroke="none" width="126" x="585" y="438.662"/>
	<use fill="#000000" fill-rule="evenodd" stroke="none" xlink:href="#Fill_5"/>
</mask>
			<use fill="none" mask="url(#StrokeMask_5)" stroke="#ffffff" stroke-linecap="round"
			     stroke-linejoin="round"
			     stroke-width="40" xlink:href="#Fill_5"/>
</g>
		<g opacity="1">
<mask height="160.105" id="StrokeMask_6" maskUnits="userSpaceOnUse" width="179" x="399" y="578.557">
<rect fill="#ffffff" height="160.105" stroke="none" width="179" x="399" y="578.557"/>
	<use fill="#000000" fill-rule="evenodd" stroke="none" xlink:href="#Fill_6"/>
</mask>
			<use fill="none" mask="url(#StrokeMask_6)" stroke="#ffffff" stroke-linecap="round"
			     stroke-linejoin="round"
			     stroke-width="40" xlink:href="#Fill_6"/>
</g>
		<g opacity="1">
<mask height="128" id="StrokeMask_7" maskUnits="userSpaceOnUse" width="86.5357" x="524" y="618.662">
<rect fill="#ffffff" height="128" stroke="none" width="86.5357" x="524" y="618.662"/>
	<use fill="#000000" fill-rule="evenodd" stroke="none" xlink:href="#Fill_7"/>
</mask>
			<use fill="none" mask="url(#StrokeMask_7)" stroke="#ffffff" stroke-linecap="round"
			     stroke-linejoin="round"
			     stroke-width="40" xlink:href="#Fill_7"/>
</g>
		<g opacity="1">
<mask height="305" id="StrokeMask_8" maskUnits="userSpaceOnUse" width="716" x="154" y="628.662">
<rect fill="#ffffff" height="305" stroke="none" width="716" x="154" y="628.662"/>
	<use fill="#000000" fill-rule="evenodd" stroke="none" xlink:href="#Fill_8"/>
</mask>
			<use fill="none" mask="url(#StrokeMask_8)" stroke="#ffffff" stroke-linecap="round"
			     stroke-linejoin="round"
			     stroke-width="40" xlink:href="#Fill_8"/>
</g>
		<g opacity="1">
<mask height="141" id="StrokeMask_9" maskUnits="userSpaceOnUse" width="132.07" x="631.263"
      y="641.662">
<rect fill="#ffffff" height="141" stroke="none" width="132.07" x="631.263" y="641.662"/>
	<use fill="#000000" fill-rule="evenodd" stroke="none" xlink:href="#Fill_9"/>
</mask>
			<use fill="none" mask="url(#StrokeMask_9)" stroke="#ffffff" stroke-linecap="round"
			     stroke-linejoin="round"
			     stroke-width="40" xlink:href="#Fill_9"/>
</g>
		<g opacity="1">
<mask height="89" id="StrokeMask_10" maskUnits="userSpaceOnUse" width="88.625" x="653.375"
      y="667.662">
<rect fill="#ffffff" height="89" stroke="none" width="88.625" x="653.375" y="667.662"/>
	<use fill="#000000" fill-rule="evenodd" stroke="none" xlink:href="#Fill_10"/>
</mask>
			<use fill="none" mask="url(#StrokeMask_10)" stroke="#ffffff" stroke-linecap="round"
			     stroke-linejoin="round"
			     stroke-width="40" xlink:href="#Fill_10"/>
</g>
		<g opacity="1">
<mask height="57" id="StrokeMask_11" maskUnits="userSpaceOnUse" width="139" x="235" y="716.662">
<rect fill="#ffffff" height="57" stroke="none" width="139" x="235" y="716.662"/>
	<use fill="#000000" fill-rule="evenodd" stroke="none" xlink:href="#Fill_11"/>
</mask>
			<use fill="none" mask="url(#StrokeMask_11)" stroke="#ffffff" stroke-linecap="round"
			     stroke-linejoin="round"
			     stroke-width="40" xlink:href="#Fill_11"/>
</g>
		<g opacity="1">
<mask height="57" id="StrokeMask_12" maskUnits="userSpaceOnUse" width="119" x="354" y="716.662">
<rect fill="#ffffff" height="57" stroke="none" width="119" x="354" y="716.662"/>
	<use fill="#000000" fill-rule="evenodd" stroke="none" xlink:href="#Fill_12"/>
</mask>
			<use fill="none" mask="url(#StrokeMask_12)" stroke="#ffffff" stroke-linecap="round"
			     stroke-linejoin="round"
			     stroke-width="40" xlink:href="#Fill_12"/>
</g>
		<g opacity="1">
<mask height="57" id="StrokeMask_13" maskUnits="userSpaceOnUse" width="120" x="455" y="716.662">
<rect fill="#ffffff" height="57" stroke="none" width="120" x="455" y="716.662"/>
	<use fill="#000000" fill-rule="evenodd" stroke="none" xlink:href="#Fill_13"/>
</mask>
			<use fill="none" mask="url(#StrokeMask_13)" stroke="#ffffff" stroke-linecap="round"
			     stroke-linejoin="round"
			     stroke-width="40" xlink:href="#Fill_13"/>
</g>
		<g opacity="1">
<mask height="57" id="StrokeMask_14" maskUnits="userSpaceOnUse" width="73" x="556" y="716.662">
<rect fill="#ffffff" height="57" stroke="none" width="73" x="556" y="716.662"/>
	<use fill="#000000" fill-rule="evenodd" stroke="none" xlink:href="#Fill_14"/>
</mask>
			<use fill="none" mask="url(#StrokeMask_14)" stroke="#ffffff" stroke-linecap="round"
			     stroke-linejoin="round"
			     stroke-width="40" xlink:href="#Fill_14"/>
</g>
		<g opacity="1">
<mask height="89.3333" id="StrokeMask_15" maskUnits="userSpaceOnUse" width="88.6" x="655.4"
      y="756.329">
<rect fill="#ffffff" height="89.3333" stroke="none" width="88.6" x="655.4" y="756.329"/>
	<use fill="#000000" fill-rule="evenodd" stroke="none" xlink:href="#Fill_15"/>
</mask>
			<use fill="none" mask="url(#StrokeMask_15)" stroke="#ffffff" stroke-linecap="round"
			     stroke-linejoin="round"
			     stroke-width="40" xlink:href="#Fill_15"/>
</g>
		<g opacity="1">
<mask height="70.7677" id="StrokeMask_16" maskUnits="userSpaceOnUse" width="70.4" x="665"
      y="765.116">
<rect fill="#ffffff" height="70.7677" stroke="none" width="70.4" x="665" y="765.116"/>
	<use fill="#000000" fill-rule="evenodd" stroke="none" xlink:href="#Fill_16"/>
</mask>
			<use fill="none" mask="url(#StrokeMask_16)" stroke="#ffffff" stroke-linecap="round"
			     stroke-linejoin="round"
			     stroke-width="40" xlink:href="#Fill_16"/>
</g>
</g>
</svg>
